<svg width="132" height="122" viewBox="0 0 132 122" fill="none" xmlns="http://www.w3.org/2000/svg">
<ellipse opacity="0.1" cx="84.3355" cy="37.3355" rx="52.5816" ry="52.5816" fill="#B6B6B6"/>
<path d="M37.4235 10.2489C35.7071 9.25792 35.1098 7.05607 36.2054 5.40456C39.7267 0.0965983 44.1066 -4.59935 49.1732 -8.48704C55.19 -13.1039 62.0573 -16.4905 69.3829 -18.4534C76.7086 -20.4163 84.3491 -20.9171 91.8683 -19.9272C99.3874 -18.9372 106.638 -16.476 113.206 -12.684C119.774 -8.89194 125.531 -3.84338 130.148 2.17346C134.765 8.1903 138.151 15.0576 140.114 22.3832C142.077 29.7089 142.578 37.3494 141.588 44.8686C140.754 51.2002 138.877 57.3413 136.041 63.0448C135.159 64.8194 132.953 65.403 131.237 64.412L129.796 63.5804C128.08 62.5895 127.505 60.3998 128.367 58.6154C130.635 53.9248 132.141 48.895 132.823 43.7147C133.662 37.3465 133.237 30.8755 131.575 24.6712C129.913 18.467 127.044 12.6509 123.134 7.55507C119.224 2.45925 114.348 -1.81651 108.786 -5.02808C103.223 -8.23965 97.0826 -10.3241 90.7144 -11.1625C84.3462 -12.0009 77.8752 -11.5768 71.671 -9.91435C65.4667 -8.25192 59.6506 -5.38375 54.5548 -1.47359C50.4095 1.70722 46.8068 5.52689 43.8782 9.83555C42.7642 11.4747 40.5802 12.0714 38.8639 11.0805L37.4235 10.2489Z" fill="#3FAAB3"/>
<path d="M33.9746 66.4033C32.2582 67.3942 31.6615 69.5956 32.7504 71.2515C37.5583 78.5624 43.8738 84.7797 51.2882 89.4776C59.7146 94.8169 69.3094 98.0346 79.2512 98.8552C89.193 99.6759 99.1856 98.0752 108.373 94.19C117.561 90.3048 125.671 84.2509 132.008 76.5466C138.345 68.8424 142.72 59.7172 144.76 49.9523C146.799 40.1874 146.442 30.0737 143.719 20.4771C140.996 10.8804 135.987 2.08667 129.123 -5.15135C123.082 -11.52 115.763 -16.5173 107.662 -19.8244C105.827 -20.5734 103.783 -19.5631 103.141 -17.6878L84.7655 36.0568C84.4847 36.8781 83.9159 37.5697 83.1642 38.0036L33.9746 66.4033Z" fill="#6BE4CA"/>
<path d="M33.6844 73.6243C32.0733 74.7786 31.6954 77.0273 32.9357 78.5731C38.3816 85.3611 45.1261 91.0128 52.7873 95.1904C61.5002 99.9415 71.1737 102.663 81.0857 103.153C90.9977 103.642 100.892 101.887 110.031 98.017C119.169 94.1473 127.316 88.2635 133.862 80.8049C140.409 73.3462 145.186 64.5053 147.838 54.9419C150.489 45.3786 150.947 35.3399 149.176 25.5751C147.404 15.8103 143.451 6.57165 137.61 -1.45133C132.473 -8.50589 125.995 -14.4603 118.558 -18.9797C116.864 -20.0089 114.683 -19.3425 113.748 -17.5953L107.552 -6.0237C106.616 -4.27651 107.283 -2.1135 108.952 -1.04351C113.705 2.0053 117.86 5.91664 121.196 10.4988C125.237 16.0499 127.973 22.4421 129.198 29.1984C130.424 35.9547 130.107 42.9005 128.273 49.5173C126.438 56.1342 123.133 62.2513 118.603 67.4119C114.074 72.5726 108.437 76.6436 102.114 79.321C95.7912 81.9984 88.9452 83.2131 82.087 82.8745C75.2289 82.5359 68.5358 80.6526 62.5073 77.3653C57.5311 74.6518 53.1139 71.0395 49.4742 66.7217C48.1969 65.2064 45.9656 64.8255 44.3546 65.9797L33.6844 73.6243Z" fill="#38A2AF"/>
<ellipse cx="84.3357" cy="37.3357" rx="37.5583" ry="37.5583" fill="white"/>
<path d="M64.5031 30.6581V43.458H62.3917V33.1638L59.264 34.2239V32.4804L64.249 30.6581H64.5031ZM84.7848 38.8322V39.0162C84.7848 39.6878 84.7089 40.307 84.5571 40.8735C84.411 41.4342 84.192 41.9219 83.9 42.3366C83.6079 42.7513 83.2458 43.0725 82.8136 43.3003C82.3872 43.5281 81.8908 43.642 81.3242 43.642C80.8278 43.642 80.3956 43.5573 80.0276 43.3879C79.6596 43.2185 79.3501 42.982 79.0989 42.6783C78.8478 42.3687 78.6463 42.0066 78.4944 41.5919C78.3426 41.1714 78.2316 40.71 78.1615 40.2077V37.4655C78.2316 36.9281 78.3396 36.4375 78.4857 35.9936C78.6375 35.5439 78.839 35.1555 79.0902 34.8284C79.3472 34.5013 79.6567 34.2502 80.0188 34.0749C80.381 33.8939 80.8103 33.8034 81.3067 33.8034C81.7623 33.8034 82.1741 33.8851 82.542 34.0487C82.91 34.2064 83.2341 34.4342 83.5145 34.732C83.7948 35.0241 84.0285 35.3774 84.2154 35.7921C84.4023 36.201 84.5424 36.6624 84.6359 37.1764C84.7352 37.6903 84.7848 38.2423 84.7848 38.8322ZM82.6734 39.0162V38.8322C82.6734 38.4642 82.6501 38.1138 82.6033 37.7809C82.5566 37.4479 82.4836 37.1442 82.3843 36.8697C82.2909 36.5894 82.1682 36.347 82.0164 36.1426C81.8645 35.9323 81.6805 35.7717 81.4644 35.6607C81.2541 35.5439 81.0088 35.4855 80.7285 35.4855C80.3488 35.4855 80.0334 35.5497 79.7823 35.6782C79.537 35.8009 79.3501 35.9761 79.2216 36.2039C79.0989 36.4258 79.0201 36.6828 78.985 36.9748V40.707C79.0259 40.9524 79.1106 41.1685 79.2391 41.3554C79.3734 41.5423 79.5633 41.6912 79.8086 41.8022C80.0539 41.9073 80.3664 41.9599 80.746 41.9599C81.0964 41.9599 81.3914 41.8869 81.6309 41.7408C81.8762 41.589 82.0748 41.3787 82.2266 41.1101C82.3843 40.8414 82.4982 40.5289 82.5683 40.1726C82.6384 39.8163 82.6734 39.4309 82.6734 39.0162ZM73.1677 39.0162V38.8322C73.1677 38.2423 73.2144 37.6903 73.3079 37.1764C73.4013 36.6624 73.5415 36.201 73.7284 35.7921C73.9212 35.3774 74.1577 35.0241 74.4381 34.732C74.7184 34.4342 75.0426 34.2064 75.4105 34.0487C75.7785 33.8851 76.1903 33.8034 76.6458 33.8034C77.1365 33.8034 77.5599 33.8939 77.9162 34.0749C78.2725 34.2502 78.5733 34.5013 78.8186 34.8284C79.0697 35.1555 79.2683 35.5439 79.4143 35.9936C79.5662 36.4375 79.6772 36.9281 79.7472 37.4655V40.1025C79.683 40.6165 79.5749 41.0896 79.4231 41.5218C79.2712 41.954 79.0726 42.3278 78.8273 42.6432C78.582 42.9586 78.2783 43.2039 77.9162 43.3792C77.5541 43.5544 77.1248 43.642 76.6283 43.642C76.0676 43.642 75.5712 43.5281 75.1389 43.3003C74.7067 43.0725 74.3446 42.7513 74.0526 42.3366C73.7605 41.9219 73.5386 41.4342 73.3867 40.8735C73.2407 40.307 73.1677 39.6878 73.1677 39.0162ZM75.2791 38.8322V39.0162C75.2791 39.4309 75.3112 39.8163 75.3755 40.1726C75.4456 40.5289 75.5536 40.8414 75.6997 41.1101C75.8457 41.3729 76.0384 41.5802 76.2779 41.7321C76.5174 41.8839 76.8123 41.9599 77.1627 41.9599C77.5482 41.9599 77.8636 41.9015 78.1089 41.7847C78.3542 41.6678 78.5411 41.5072 78.6696 41.3028C78.804 41.0984 78.8916 40.8647 78.9325 40.6019V36.9748C78.8974 36.6828 78.8157 36.4258 78.6872 36.2039C78.5587 35.9761 78.3718 35.8009 78.1265 35.6782C77.8811 35.5497 77.5658 35.4855 77.1803 35.4855C76.8298 35.4855 76.532 35.5731 76.2866 35.7483C76.0472 35.9235 75.8515 36.1659 75.6997 36.4755C75.5536 36.7792 75.4456 37.1355 75.3755 37.5443C75.3112 37.9473 75.2791 38.3766 75.2791 38.8322ZM77.8724 47.1026V30.0011H79.9926V47.1026H77.8724ZM91.9426 41.5569V37.0362C91.9426 36.6974 91.8813 36.4054 91.7586 36.1601C91.636 35.9148 91.4491 35.7249 91.1979 35.5906C90.9526 35.4563 90.643 35.3891 90.2692 35.3891C89.9246 35.3891 89.6268 35.4475 89.3756 35.5643C89.1245 35.6811 88.9288 35.8388 88.7886 36.0374C88.6485 36.236 88.5784 36.4609 88.5784 36.712H86.4757C86.4757 36.3382 86.5662 35.9761 86.7473 35.6257C86.9284 35.2752 87.1912 34.9627 87.5358 34.6882C87.8804 34.4137 88.2922 34.1976 88.7711 34.0399C89.25 33.8822 89.7874 33.8034 90.3831 33.8034C91.0957 33.8034 91.7265 33.9231 92.2755 34.1626C92.8304 34.402 93.2655 34.7641 93.5809 35.2489C93.9021 35.7279 94.0628 36.3295 94.0628 37.0537V41.2678C94.0628 41.7 94.092 42.0884 94.1504 42.433C94.2146 42.7717 94.3052 43.0667 94.422 43.3178V43.458H92.258C92.1587 43.2302 92.0799 42.9411 92.0214 42.5907C91.9689 42.2344 91.9426 41.8898 91.9426 41.5569ZM92.2492 37.6933L92.2668 38.9986H90.7511C90.3598 38.9986 90.0152 39.0366 89.7173 39.1125C89.4194 39.1826 89.1712 39.2878 88.9726 39.4279C88.774 39.5681 88.6251 39.7375 88.5258 39.9361C88.4265 40.1347 88.3769 40.3595 88.3769 40.6107C88.3769 40.8618 88.4353 41.0925 88.5521 41.3028C88.6689 41.5072 88.8383 41.6678 89.0602 41.7847C89.288 41.9015 89.5625 41.9599 89.8838 41.9599C90.316 41.9599 90.6927 41.8723 91.0139 41.697C91.341 41.516 91.598 41.297 91.7849 41.04C91.9718 40.7771 92.0711 40.5289 92.0828 40.2953L92.7661 41.2327C92.696 41.4722 92.5763 41.7292 92.4069 42.0037C92.2376 42.2782 92.0156 42.541 91.7411 42.7922C91.4724 43.0375 91.1483 43.239 90.7686 43.3967C90.3948 43.5544 89.9626 43.6332 89.472 43.6332C88.8529 43.6332 88.3009 43.5106 87.8162 43.2653C87.3314 43.0141 86.9517 42.6783 86.6772 42.2577C86.4027 41.8314 86.2655 41.3495 86.2655 40.8122C86.2655 40.3099 86.3589 39.866 86.5458 39.4805C86.7385 39.0892 87.0189 38.7621 87.3869 38.4993C87.7607 38.2364 88.2162 38.0379 88.7536 37.9035C89.2909 37.7633 89.9042 37.6933 90.5934 37.6933H92.2492ZM100.195 38.9286H98.3732V37.8597H99.845C100.219 37.8597 100.517 37.8101 100.739 37.7108C100.966 37.6115 101.127 37.4742 101.221 37.299C101.32 37.1179 101.369 36.9077 101.369 36.6682C101.369 36.4579 101.32 36.2594 101.221 36.0725C101.127 35.8797 100.966 35.722 100.739 35.5994C100.511 35.4767 100.201 35.4154 99.81 35.4154C99.4888 35.4154 99.1996 35.468 98.9427 35.5731C98.6915 35.6782 98.4929 35.8242 98.3469 36.0111C98.2009 36.198 98.1279 36.4141 98.1279 36.6595H96.0165C96.0165 36.0695 96.1829 35.5614 96.5158 35.135C96.8546 34.7087 97.3073 34.3816 97.8738 34.1538C98.4404 33.926 99.0624 33.8121 99.7399 33.8121C100.318 33.8121 100.838 33.8734 101.299 33.9961C101.761 34.1129 102.152 34.2881 102.473 34.5218C102.8 34.7495 103.049 35.0357 103.218 35.3803C103.393 35.7191 103.481 36.1133 103.481 36.5631C103.481 36.8843 103.405 37.188 103.253 37.4742C103.101 37.7604 102.882 38.0145 102.596 38.2364C102.31 38.4525 101.962 38.6219 101.553 38.7446C101.15 38.8672 100.698 38.9286 100.195 38.9286ZM98.3732 38.3153H100.195C100.756 38.3153 101.253 38.3708 101.685 38.4817C102.117 38.5869 102.479 38.7446 102.771 38.9548C103.063 39.1651 103.282 39.425 103.428 39.7346C103.58 40.0383 103.656 40.3887 103.656 40.7859C103.656 41.2298 103.56 41.6299 103.367 41.9862C103.18 42.3366 102.911 42.6345 102.561 42.8798C102.216 43.1251 101.805 43.312 101.326 43.4405C100.847 43.569 100.318 43.6332 99.7399 43.6332C99.1091 43.6332 98.4958 43.5281 97.9001 43.3178C97.3102 43.1076 96.8225 42.7834 96.437 42.3454C96.0574 41.9015 95.8675 41.3378 95.8675 40.6545H97.9789C97.9789 40.8939 98.0519 41.1188 98.198 41.3291C98.344 41.5393 98.5542 41.7116 98.8288 41.846C99.1033 41.9745 99.4333 42.0387 99.8188 42.0387C100.216 42.0387 100.54 41.9774 100.791 41.8547C101.042 41.7262 101.229 41.5598 101.352 41.3554C101.475 41.1451 101.536 40.9232 101.536 40.6895C101.536 40.3741 101.475 40.1201 101.352 39.9273C101.229 39.7346 101.042 39.5944 100.791 39.5068C100.54 39.4133 100.225 39.3666 99.845 39.3666H98.3732V38.3153ZM110.796 41.5569V37.0362C110.796 36.6974 110.735 36.4054 110.612 36.1601C110.49 35.9148 110.303 35.7249 110.052 35.5906C109.806 35.4563 109.497 35.3891 109.123 35.3891C108.778 35.3891 108.48 35.4475 108.229 35.5643C107.978 35.6811 107.783 35.8388 107.642 36.0374C107.502 36.236 107.432 36.4609 107.432 36.712H105.329C105.329 36.3382 105.42 35.9761 105.601 35.6257C105.782 35.2752 106.045 34.9627 106.39 34.6882C106.734 34.4137 107.146 34.1976 107.625 34.0399C108.104 33.8822 108.641 33.8034 109.237 33.8034C109.949 33.8034 110.58 33.9231 111.129 34.1626C111.684 34.402 112.119 34.7641 112.435 35.2489C112.756 35.7279 112.916 36.3295 112.916 37.0537V41.2678C112.916 41.7 112.946 42.0884 113.004 42.433C113.068 42.7717 113.159 43.0667 113.276 43.3178V43.458H111.112C111.012 43.2302 110.934 42.9411 110.875 42.5907C110.823 42.2344 110.796 41.8898 110.796 41.5569ZM111.103 37.6933L111.12 38.9986H109.605C109.213 38.9986 108.869 39.0366 108.571 39.1125C108.273 39.1826 108.025 39.2878 107.826 39.4279C107.628 39.5681 107.479 39.7375 107.38 39.9361C107.28 40.1347 107.231 40.3595 107.231 40.6107C107.231 40.8618 107.289 41.0925 107.406 41.3028C107.523 41.5072 107.692 41.6678 107.914 41.7847C108.142 41.9015 108.416 41.9599 108.737 41.9599C109.17 41.9599 109.546 41.8723 109.868 41.697C110.195 41.516 110.452 41.297 110.639 41.04C110.826 40.7771 110.925 40.5289 110.936 40.2953L111.62 41.2327C111.55 41.4722 111.43 41.7292 111.261 42.0037C111.091 42.2782 110.869 42.541 110.595 42.7922C110.326 43.0375 110.002 43.239 109.622 43.3967C109.249 43.5544 108.816 43.6332 108.326 43.6332C107.707 43.6332 107.155 43.5106 106.67 43.2653C106.185 43.0141 105.805 42.6783 105.531 42.2577C105.256 41.8314 105.119 41.3495 105.119 40.8122C105.119 40.3099 105.213 39.866 105.4 39.4805C105.592 39.0892 105.873 38.7621 106.241 38.4993C106.614 38.2364 107.07 38.0379 107.607 37.9035C108.145 37.7633 108.758 37.6933 109.447 37.6933H111.103Z" fill="black"/>
</svg>
