<svg width="452" height="428" viewBox="0 0 452 428" fill="none" xmlns="http://www.w3.org/2000/svg">
<g filter="url(#filter0_d_1198_4366)">
<rect x="34" y="31" width="384" height="360" rx="9" fill="white"/>
<path d="M60.41 352.5H58.58C58.39 352.5 58.23 352.45 58.1 352.35C57.975 352.25 57.8575 352.103 57.7475 351.908L55.4375 348.263C55.3775 348.158 55.3125 348.073 55.2425 348.008C55.1775 347.938 55.105 347.883 55.025 347.843C54.95 347.798 54.8625 347.768 54.7625 347.753C54.6675 347.738 54.5575 347.73 54.4325 347.73H53.225V352.5H51.2075V341.655H53.225V346.2H54.245C54.45 346.2 54.6275 346.165 54.7775 346.095C54.9275 346.025 55.0675 345.895 55.1975 345.705L57.575 342.195C57.675 342.035 57.7925 341.905 57.9275 341.805C58.0625 341.705 58.225 341.655 58.415 341.655H60.14L57.1925 346.005C57.0675 346.195 56.9225 346.353 56.7575 346.478C56.5925 346.603 56.41 346.7 56.21 346.77C56.51 346.855 56.7625 346.99 56.9675 347.175C57.1775 347.355 57.3775 347.605 57.5675 347.925L60.41 352.5ZM67.529 344.805L63.3365 354.615C63.2815 354.745 63.209 354.842 63.119 354.907C63.034 354.977 62.9015 355.012 62.7215 355.012H61.3415L62.7815 351.923L59.669 344.805H61.2965C61.4415 344.805 61.554 344.84 61.634 344.91C61.719 344.98 61.7815 345.06 61.8215 345.15L63.4565 349.14C63.5115 349.275 63.5565 349.41 63.5915 349.545C63.6315 349.68 63.669 349.818 63.704 349.958C63.749 349.818 63.794 349.68 63.839 349.545C63.884 349.405 63.934 349.268 63.989 349.133L65.534 345.15C65.574 345.05 65.639 344.968 65.729 344.903C65.824 344.838 65.929 344.805 66.044 344.805H67.529ZM75.1542 352.5H73.3017V346.178H70.3017V352.5H68.4492V344.805H75.1542V352.5ZM83.9792 344.805L79.7867 354.615C79.7317 354.745 79.6592 354.842 79.5692 354.907C79.4842 354.977 79.3517 355.012 79.1717 355.012H77.7917L79.2317 351.923L76.1192 344.805H77.7467C77.8917 344.805 78.0042 344.84 78.0842 344.91C78.1692 344.98 78.2317 345.06 78.2717 345.15L79.9067 349.14C79.9617 349.275 80.0067 349.41 80.0417 349.545C80.0817 349.68 80.1192 349.818 80.1542 349.958C80.1992 349.818 80.2442 349.68 80.2892 349.545C80.3342 349.405 80.3842 349.268 80.4392 349.133L81.9842 345.15C82.0242 345.05 82.0892 344.968 82.1792 344.903C82.2742 344.838 82.3792 344.805 82.4942 344.805H83.9792ZM90.2 346.373C90.145 346.443 90.09 346.498 90.035 346.538C89.985 346.578 89.9125 346.598 89.8175 346.598C89.7225 346.598 89.6275 346.573 89.5325 346.523C89.4375 346.468 89.325 346.41 89.195 346.35C89.07 346.285 88.92 346.228 88.745 346.178C88.57 346.123 88.355 346.095 88.1 346.095C87.545 346.095 87.1025 346.258 86.7725 346.583C86.4425 346.908 86.2325 347.36 86.1425 347.94H89.39V349.2H86.12C86.205 349.85 86.42 350.348 86.765 350.693C87.11 351.033 87.54 351.203 88.055 351.203C88.25 351.203 88.42 351.188 88.565 351.158C88.715 351.123 88.845 351.083 88.955 351.038C89.065 350.993 89.1625 350.943 89.2475 350.888C89.3325 350.828 89.41 350.775 89.48 350.73C89.55 350.685 89.6175 350.648 89.6825 350.618C89.7475 350.583 89.82 350.565 89.9 350.565C90.045 350.565 90.1575 350.62 90.2375 350.73L90.74 351.353C90.535 351.593 90.3125 351.795 90.0725 351.96C89.8325 352.12 89.5825 352.25 89.3225 352.35C89.0675 352.445 88.8025 352.512 88.5275 352.552C88.2575 352.592 87.9875 352.612 87.7175 352.612C87.2425 352.612 86.795 352.525 86.375 352.35C85.955 352.17 85.5875 351.91 85.2725 351.57C84.9575 351.23 84.7075 350.815 84.5225 350.325C84.3425 349.83 84.2525 349.268 84.2525 348.638C84.2525 348.073 84.3325 347.55 84.4925 347.07C84.6575 346.585 84.8975 346.168 85.2125 345.818C85.5275 345.463 85.9175 345.185 86.3825 344.985C86.8475 344.785 87.3825 344.685 87.9875 344.685C88.5625 344.685 89.065 344.778 89.495 344.963C89.93 345.148 90.32 345.413 90.665 345.758L90.2 346.373ZM98.5746 346.178H95.8296V352.5H93.9771V346.178H91.2396V344.805H98.5746V346.178ZM104.403 347.768C104.403 347.528 104.368 347.303 104.298 347.093C104.233 346.878 104.133 346.69 103.998 346.53C103.863 346.37 103.69 346.245 103.48 346.155C103.275 346.06 103.035 346.013 102.76 346.013C102.225 346.013 101.803 346.165 101.493 346.47C101.188 346.775 100.993 347.208 100.908 347.768H104.403ZM100.87 348.885C100.9 349.28 100.97 349.623 101.08 349.913C101.19 350.198 101.335 350.435 101.515 350.625C101.695 350.81 101.908 350.95 102.153 351.045C102.403 351.135 102.678 351.18 102.978 351.18C103.278 351.18 103.535 351.145 103.75 351.075C103.97 351.005 104.16 350.928 104.32 350.843C104.485 350.758 104.628 350.68 104.748 350.61C104.873 350.54 104.993 350.505 105.108 350.505C105.263 350.505 105.378 350.563 105.453 350.678L105.985 351.353C105.78 351.593 105.55 351.795 105.295 351.96C105.04 352.12 104.773 352.25 104.493 352.35C104.218 352.445 103.935 352.512 103.645 352.552C103.36 352.592 103.083 352.612 102.813 352.612C102.278 352.612 101.78 352.525 101.32 352.35C100.86 352.17 100.46 351.908 100.12 351.563C99.7803 351.213 99.5128 350.783 99.3178 350.273C99.1228 349.758 99.0253 349.163 99.0253 348.488C99.0253 347.963 99.1103 347.47 99.2803 347.01C99.4503 346.545 99.6928 346.143 100.008 345.803C100.328 345.458 100.715 345.185 101.17 344.985C101.63 344.785 102.148 344.685 102.723 344.685C103.208 344.685 103.655 344.763 104.065 344.918C104.475 345.073 104.828 345.3 105.123 345.6C105.418 345.895 105.648 346.26 105.813 346.695C105.983 347.125 106.068 347.618 106.068 348.173C106.068 348.453 106.038 348.643 105.978 348.743C105.918 348.838 105.803 348.885 105.633 348.885H100.87ZM117.18 344.805V352.5H115.328V349.478C114.668 349.638 114.055 349.73 113.49 349.755C112.925 349.775 112.435 349.708 112.02 349.553C111.61 349.393 111.288 349.135 111.053 348.78C110.823 348.425 110.708 347.953 110.708 347.363V344.805H112.56V347.078C112.56 347.393 112.61 347.648 112.71 347.843C112.815 348.033 112.978 348.17 113.198 348.255C113.423 348.34 113.71 348.375 114.06 348.36C114.41 348.345 114.833 348.288 115.328 348.188V344.805H117.18ZM123.973 347.768C123.973 347.528 123.938 347.303 123.868 347.093C123.803 346.878 123.703 346.69 123.568 346.53C123.433 346.37 123.261 346.245 123.051 346.155C122.846 346.06 122.606 346.013 122.331 346.013C121.796 346.013 121.373 346.165 121.063 346.47C120.758 346.775 120.563 347.208 120.478 347.768H123.973ZM120.441 348.885C120.471 349.28 120.541 349.623 120.651 349.913C120.761 350.198 120.906 350.435 121.086 350.625C121.266 350.81 121.478 350.95 121.723 351.045C121.973 351.135 122.248 351.18 122.548 351.18C122.848 351.18 123.106 351.145 123.321 351.075C123.541 351.005 123.731 350.928 123.891 350.843C124.056 350.758 124.198 350.68 124.318 350.61C124.443 350.54 124.563 350.505 124.678 350.505C124.833 350.505 124.948 350.563 125.023 350.678L125.556 351.353C125.351 351.593 125.121 351.795 124.866 351.96C124.611 352.12 124.343 352.25 124.063 352.35C123.788 352.445 123.506 352.512 123.216 352.552C122.931 352.592 122.653 352.612 122.383 352.612C121.848 352.612 121.351 352.525 120.891 352.35C120.431 352.17 120.031 351.908 119.691 351.563C119.351 351.213 119.083 350.783 118.888 350.273C118.693 349.758 118.596 349.163 118.596 348.488C118.596 347.963 118.681 347.47 118.851 347.01C119.021 346.545 119.263 346.143 119.578 345.803C119.898 345.458 120.286 345.185 120.741 344.985C121.201 344.785 121.718 344.685 122.293 344.685C122.778 344.685 123.226 344.763 123.636 344.918C124.046 345.073 124.398 345.3 124.693 345.6C124.988 345.895 125.218 346.26 125.383 346.695C125.553 347.125 125.638 347.618 125.638 348.173C125.638 348.453 125.608 348.643 125.548 348.743C125.488 348.838 125.373 348.885 125.203 348.885H120.441ZM134.168 352.5H132.316V346.223H130.426C130.366 347.168 130.273 347.983 130.148 348.668C130.023 349.348 129.873 349.925 129.698 350.4C129.528 350.875 129.336 351.258 129.121 351.548C128.911 351.833 128.686 352.055 128.446 352.215C128.206 352.375 127.958 352.48 127.703 352.53C127.448 352.585 127.191 352.612 126.931 352.612C126.656 352.612 126.453 352.587 126.323 352.537C126.198 352.493 126.136 352.428 126.136 352.343V351.188H126.578C126.743 351.188 126.908 351.163 127.073 351.113C127.238 351.063 127.398 350.96 127.553 350.805C127.708 350.65 127.856 350.43 127.996 350.145C128.136 349.855 128.263 349.475 128.378 349.005C128.498 348.53 128.603 347.95 128.693 347.265C128.783 346.58 128.853 345.76 128.903 344.805H134.168V352.5ZM140.951 347.768C140.951 347.528 140.916 347.303 140.846 347.093C140.781 346.878 140.681 346.69 140.546 346.53C140.411 346.37 140.238 346.245 140.028 346.155C139.823 346.06 139.583 346.013 139.308 346.013C138.773 346.013 138.351 346.165 138.041 346.47C137.736 346.775 137.541 347.208 137.456 347.768H140.951ZM137.418 348.885C137.448 349.28 137.518 349.623 137.628 349.913C137.738 350.198 137.883 350.435 138.063 350.625C138.243 350.81 138.456 350.95 138.701 351.045C138.951 351.135 139.226 351.18 139.526 351.18C139.826 351.18 140.083 351.145 140.298 351.075C140.518 351.005 140.708 350.928 140.868 350.843C141.033 350.758 141.176 350.68 141.296 350.61C141.421 350.54 141.541 350.505 141.656 350.505C141.811 350.505 141.926 350.563 142.001 350.678L142.533 351.353C142.328 351.593 142.098 351.795 141.843 351.96C141.588 352.12 141.321 352.25 141.041 352.35C140.766 352.445 140.483 352.512 140.193 352.552C139.908 352.592 139.631 352.612 139.361 352.612C138.826 352.612 138.328 352.525 137.868 352.35C137.408 352.17 137.008 351.908 136.668 351.563C136.328 351.213 136.061 350.783 135.866 350.273C135.671 349.758 135.573 349.163 135.573 348.488C135.573 347.963 135.658 347.47 135.828 347.01C135.998 346.545 136.241 346.143 136.556 345.803C136.876 345.458 137.263 345.185 137.718 344.985C138.178 344.785 138.696 344.685 139.271 344.685C139.756 344.685 140.203 344.763 140.613 344.918C141.023 345.073 141.376 345.3 141.671 345.6C141.966 345.895 142.196 346.26 142.361 346.695C142.531 347.125 142.616 347.618 142.616 348.173C142.616 348.453 142.586 348.643 142.526 348.743C142.466 348.838 142.351 348.885 142.181 348.885H137.418ZM150.711 344.805V352.5H148.858V349.095H145.858V352.5H144.006V344.805H145.858V347.723H148.858V344.805H150.711ZM157.676 351.18V346.223H155.786C155.736 346.868 155.673 347.45 155.598 347.97C155.523 348.485 155.436 348.945 155.336 349.35C155.236 349.755 155.126 350.108 155.006 350.408C154.891 350.708 154.766 350.965 154.631 351.18H157.676ZM160.886 351.128V354.525C160.886 354.695 160.836 354.83 160.736 354.93C160.641 355.03 160.516 355.08 160.361 355.08H159.206V352.5H153.446V354.555C153.446 354.685 153.403 354.805 153.318 354.915C153.238 355.025 153.111 355.08 152.936 355.08H151.766V351.18H151.983C152.158 351.18 152.328 351.158 152.493 351.113C152.658 351.063 152.816 350.963 152.966 350.813C153.121 350.663 153.266 350.448 153.401 350.168C153.541 349.883 153.666 349.505 153.776 349.035C153.886 348.56 153.981 347.978 154.061 347.288C154.146 346.598 154.213 345.77 154.263 344.805H159.476V351.128H160.886ZM173.28 352.5H171.998C171.668 352.5 171.418 352.45 171.248 352.35C171.078 352.25 170.943 352.088 170.843 351.863L169.703 349.733C169.608 349.548 169.48 349.41 169.32 349.32C169.165 349.23 168.983 349.185 168.773 349.185H168.165V352.5H166.373V349.185H165.758C165.553 349.185 165.37 349.23 165.21 349.32C165.05 349.41 164.923 349.548 164.828 349.733L163.688 351.863C163.588 352.088 163.453 352.25 163.283 352.35C163.113 352.45 162.863 352.5 162.533 352.5H161.258L163.058 349.328C163.183 349.103 163.325 348.918 163.485 348.773C163.645 348.623 163.85 348.508 164.1 348.428C163.915 348.363 163.758 348.27 163.628 348.15C163.498 348.025 163.373 347.863 163.253 347.663L161.453 344.805H162.915C163.085 344.805 163.24 344.85 163.38 344.94C163.525 345.025 163.638 345.143 163.718 345.293L165.023 347.505C165.118 347.665 165.228 347.785 165.353 347.865C165.483 347.94 165.653 347.978 165.863 347.978H166.373V344.805H168.165V347.978H168.638C168.848 347.978 169.02 347.94 169.155 347.865C169.295 347.785 169.413 347.665 169.508 347.505L170.813 345.293C170.893 345.143 171.003 345.025 171.143 344.94C171.288 344.85 171.448 344.805 171.623 344.805H173.078L171.278 347.663C171.158 347.863 171.033 348.025 170.903 348.15C170.773 348.27 170.615 348.363 170.43 348.428C170.68 348.508 170.885 348.623 171.045 348.773C171.205 348.918 171.348 349.103 171.473 349.328L173.28 352.5ZM181.103 351.233C181.493 351.233 181.801 351.138 182.026 350.948C182.256 350.758 182.371 350.498 182.371 350.168C182.371 350.028 182.351 349.898 182.311 349.778C182.276 349.653 182.211 349.545 182.116 349.455C182.021 349.365 181.891 349.295 181.726 349.245C181.566 349.195 181.361 349.17 181.111 349.17H179.723V351.233H181.103ZM179.723 346.013V348.03H180.938C181.118 348.03 181.283 348.005 181.433 347.955C181.583 347.9 181.713 347.825 181.823 347.73C181.933 347.63 182.018 347.515 182.078 347.385C182.138 347.25 182.168 347.103 182.168 346.943C182.168 346.828 182.148 346.715 182.108 346.605C182.068 346.49 182.001 346.39 181.906 346.305C181.811 346.215 181.683 346.145 181.523 346.095C181.368 346.04 181.173 346.013 180.938 346.013H179.723ZM180.991 344.805C181.476 344.805 181.893 344.853 182.243 344.948C182.598 345.043 182.891 345.173 183.121 345.338C183.351 345.503 183.521 345.7 183.631 345.93C183.741 346.155 183.796 346.4 183.796 346.665C183.796 346.83 183.773 347.003 183.728 347.183C183.688 347.358 183.613 347.528 183.503 347.693C183.398 347.858 183.253 348.008 183.068 348.143C182.883 348.278 182.648 348.383 182.363 348.458C182.618 348.513 182.851 348.59 183.061 348.69C183.271 348.785 183.451 348.908 183.601 349.058C183.751 349.203 183.866 349.375 183.946 349.575C184.031 349.77 184.073 349.99 184.073 350.235C184.073 350.625 183.991 350.963 183.826 351.248C183.666 351.533 183.448 351.768 183.173 351.953C182.903 352.138 182.588 352.275 182.228 352.365C181.873 352.455 181.501 352.5 181.111 352.5H177.961V344.805H180.991ZM188.702 345.638C188.992 345.358 189.352 345.13 189.782 344.955C190.212 344.775 190.727 344.685 191.327 344.685C191.802 344.685 192.225 344.743 192.595 344.858C192.965 344.968 193.275 345.12 193.525 345.315C193.78 345.505 193.972 345.725 194.102 345.975C194.237 346.22 194.305 346.478 194.305 346.748C194.305 346.893 194.282 347.045 194.237 347.205C194.197 347.36 194.127 347.513 194.027 347.663C193.932 347.813 193.805 347.953 193.645 348.083C193.485 348.208 193.287 348.315 193.052 348.405C193.472 348.565 193.81 348.8 194.065 349.11C194.325 349.42 194.455 349.803 194.455 350.258C194.455 350.633 194.367 350.965 194.192 351.255C194.022 351.545 193.795 351.793 193.51 351.998C193.225 352.198 192.897 352.35 192.527 352.455C192.162 352.56 191.785 352.612 191.395 352.612C191.175 352.612 190.937 352.592 190.682 352.552C190.432 352.512 190.18 352.445 189.925 352.35C189.67 352.25 189.42 352.12 189.175 351.96C188.93 351.795 188.707 351.593 188.507 351.353L189.04 350.678C189.115 350.563 189.227 350.505 189.377 350.505C189.492 350.505 189.602 350.543 189.707 350.618C189.812 350.688 189.932 350.768 190.067 350.858C190.207 350.943 190.372 351.023 190.562 351.098C190.752 351.168 190.99 351.203 191.275 351.203C191.74 351.203 192.092 351.098 192.332 350.888C192.572 350.678 192.692 350.415 192.692 350.1C192.692 349.79 192.567 349.548 192.317 349.373C192.072 349.198 191.672 349.11 191.117 349.11H190.247V347.903H191.117C191.602 347.903 191.975 347.818 192.235 347.648C192.495 347.478 192.625 347.253 192.625 346.973C192.625 346.718 192.51 346.508 192.28 346.343C192.055 346.178 191.72 346.095 191.275 346.095C191.01 346.095 190.785 346.123 190.6 346.178C190.415 346.233 190.255 346.293 190.12 346.358C189.99 346.418 189.88 346.475 189.79 346.53C189.7 346.585 189.615 346.613 189.535 346.613C189.45 346.613 189.377 346.598 189.317 346.568C189.257 346.533 189.192 346.46 189.122 346.35L188.702 345.638ZM199.97 349.215C199.435 349.24 198.985 349.288 198.62 349.358C198.255 349.423 197.963 349.508 197.743 349.613C197.523 349.718 197.365 349.84 197.27 349.98C197.175 350.12 197.128 350.273 197.128 350.438C197.128 350.763 197.223 350.995 197.413 351.135C197.608 351.275 197.86 351.345 198.17 351.345C198.55 351.345 198.878 351.278 199.153 351.143C199.433 351.003 199.705 350.793 199.97 350.513V349.215ZM195.725 345.878C196.61 345.068 197.675 344.663 198.92 344.663C199.37 344.663 199.773 344.738 200.128 344.888C200.483 345.033 200.783 345.238 201.028 345.503C201.273 345.763 201.458 346.075 201.583 346.44C201.713 346.805 201.778 347.205 201.778 347.64V352.5H200.938C200.763 352.5 200.628 352.475 200.533 352.425C200.438 352.37 200.363 352.263 200.308 352.103L200.143 351.548C199.948 351.723 199.758 351.878 199.573 352.013C199.388 352.143 199.195 352.253 198.995 352.343C198.795 352.433 198.58 352.5 198.35 352.545C198.125 352.595 197.875 352.62 197.6 352.62C197.275 352.62 196.975 352.577 196.7 352.493C196.425 352.403 196.188 352.27 195.988 352.095C195.788 351.92 195.633 351.703 195.523 351.443C195.413 351.183 195.358 350.88 195.358 350.535C195.358 350.34 195.39 350.148 195.455 349.958C195.52 349.763 195.625 349.578 195.77 349.403C195.92 349.228 196.113 349.063 196.348 348.908C196.583 348.753 196.87 348.618 197.21 348.503C197.555 348.388 197.955 348.295 198.41 348.225C198.865 348.15 199.385 348.105 199.97 348.09V347.64C199.97 347.125 199.86 346.745 199.64 346.5C199.42 346.25 199.103 346.125 198.688 346.125C198.388 346.125 198.138 346.16 197.938 346.23C197.743 346.3 197.57 346.38 197.42 346.47C197.27 346.555 197.133 346.633 197.008 346.703C196.888 346.773 196.753 346.808 196.603 346.808C196.473 346.808 196.363 346.775 196.273 346.71C196.183 346.64 196.11 346.56 196.055 346.47L195.725 345.878ZM210.227 352.5H208.375V346.178H205.375V352.5H203.522V344.805H210.227V352.5ZM213.915 350.505C214.125 350.76 214.352 350.94 214.597 351.045C214.847 351.15 215.117 351.203 215.407 351.203C215.687 351.203 215.94 351.15 216.165 351.045C216.39 350.94 216.58 350.78 216.735 350.565C216.895 350.35 217.017 350.08 217.102 349.755C217.187 349.425 217.23 349.038 217.23 348.593C217.23 348.143 217.192 347.763 217.117 347.453C217.047 347.138 216.945 346.883 216.81 346.688C216.675 346.493 216.51 346.35 216.315 346.26C216.125 346.17 215.907 346.125 215.662 346.125C215.277 346.125 214.95 346.208 214.68 346.373C214.41 346.533 214.155 346.76 213.915 347.055V350.505ZM213.817 345.855C214.132 345.5 214.49 345.213 214.89 344.993C215.29 344.773 215.76 344.663 216.3 344.663C216.72 344.663 217.102 344.75 217.447 344.925C217.797 345.1 218.097 345.355 218.347 345.69C218.602 346.02 218.797 346.43 218.932 346.92C219.072 347.405 219.142 347.963 219.142 348.593C219.142 349.168 219.065 349.7 218.91 350.19C218.755 350.68 218.532 351.105 218.242 351.465C217.957 351.825 217.61 352.108 217.2 352.313C216.795 352.513 216.34 352.612 215.835 352.612C215.405 352.612 215.037 352.547 214.732 352.418C214.427 352.283 214.155 352.098 213.915 351.863V355.012H212.062V344.805H213.195C213.435 344.805 213.592 344.918 213.667 345.143L213.817 345.855ZM223.978 344.685C224.548 344.685 225.066 344.778 225.531 344.963C226.001 345.148 226.401 345.41 226.731 345.75C227.066 346.09 227.323 346.505 227.503 346.995C227.683 347.485 227.773 348.033 227.773 348.638C227.773 349.248 227.683 349.798 227.503 350.288C227.323 350.778 227.066 351.195 226.731 351.54C226.401 351.885 226.001 352.15 225.531 352.335C225.066 352.52 224.548 352.612 223.978 352.612C223.403 352.612 222.881 352.52 222.411 352.335C221.941 352.15 221.538 351.885 221.203 351.54C220.873 351.195 220.616 350.778 220.431 350.288C220.251 349.798 220.161 349.248 220.161 348.638C220.161 348.033 220.251 347.485 220.431 346.995C220.616 346.505 220.873 346.09 221.203 345.75C221.538 345.41 221.941 345.148 222.411 344.963C222.881 344.778 223.403 344.685 223.978 344.685ZM223.978 351.188C224.618 351.188 225.091 350.973 225.396 350.543C225.706 350.113 225.861 349.483 225.861 348.653C225.861 347.823 225.706 347.19 225.396 346.755C225.091 346.32 224.618 346.103 223.978 346.103C223.328 346.103 222.846 346.323 222.531 346.763C222.221 347.198 222.066 347.828 222.066 348.653C222.066 349.478 222.221 350.108 222.531 350.543C222.846 350.973 223.328 351.188 223.978 351.188ZM235.891 352.5H234.039V346.178H231.039V352.5H229.186V344.805H235.891V352.5ZM241.132 344.685C241.702 344.685 242.219 344.778 242.684 344.963C243.154 345.148 243.554 345.41 243.884 345.75C244.219 346.09 244.477 346.505 244.657 346.995C244.837 347.485 244.927 348.033 244.927 348.638C244.927 349.248 244.837 349.798 244.657 350.288C244.477 350.778 244.219 351.195 243.884 351.54C243.554 351.885 243.154 352.15 242.684 352.335C242.219 352.52 241.702 352.612 241.132 352.612C240.557 352.612 240.034 352.52 239.564 352.335C239.094 352.15 238.692 351.885 238.357 351.54C238.027 351.195 237.769 350.778 237.584 350.288C237.404 349.798 237.314 349.248 237.314 348.638C237.314 348.033 237.404 347.485 237.584 346.995C237.769 346.505 238.027 346.09 238.357 345.75C238.692 345.41 239.094 345.148 239.564 344.963C240.034 344.778 240.557 344.685 241.132 344.685ZM241.132 351.188C241.772 351.188 242.244 350.973 242.549 350.543C242.859 350.113 243.014 349.483 243.014 348.653C243.014 347.823 242.859 347.19 242.549 346.755C242.244 346.32 241.772 346.103 241.132 346.103C240.482 346.103 239.999 346.323 239.684 346.763C239.374 347.198 239.219 347.828 239.219 348.653C239.219 349.478 239.374 350.108 239.684 350.543C239.999 350.973 240.482 351.188 241.132 351.188ZM253.045 344.805V352.5H251.192V349.095H248.192V352.5H246.34V344.805H248.192V347.723H251.192V344.805H253.045ZM258.285 344.685C258.855 344.685 259.372 344.778 259.837 344.963C260.307 345.148 260.707 345.41 261.037 345.75C261.372 346.09 261.63 346.505 261.81 346.995C261.99 347.485 262.08 348.033 262.08 348.638C262.08 349.248 261.99 349.798 261.81 350.288C261.63 350.778 261.372 351.195 261.037 351.54C260.707 351.885 260.307 352.15 259.837 352.335C259.372 352.52 258.855 352.612 258.285 352.612C257.71 352.612 257.187 352.52 256.717 352.335C256.247 352.15 255.845 351.885 255.51 351.54C255.18 351.195 254.922 350.778 254.737 350.288C254.557 349.798 254.467 349.248 254.467 348.638C254.467 348.033 254.557 347.485 254.737 346.995C254.922 346.505 255.18 346.09 255.51 345.75C255.845 345.41 256.247 345.148 256.717 344.963C257.187 344.778 257.71 344.685 258.285 344.685ZM258.285 351.188C258.925 351.188 259.397 350.973 259.702 350.543C260.012 350.113 260.167 349.483 260.167 348.653C260.167 347.823 260.012 347.19 259.702 346.755C259.397 346.32 258.925 346.103 258.285 346.103C257.635 346.103 257.152 346.323 256.837 346.763C256.527 347.198 256.372 347.828 256.372 348.653C256.372 349.478 256.527 350.108 256.837 350.543C257.152 350.973 257.635 351.188 258.285 351.188ZM266.636 351.233C267.026 351.233 267.333 351.138 267.558 350.948C267.788 350.758 267.903 350.498 267.903 350.168C267.903 350.028 267.883 349.898 267.843 349.778C267.808 349.653 267.743 349.545 267.648 349.455C267.553 349.365 267.423 349.295 267.258 349.245C267.098 349.195 266.893 349.17 266.643 349.17H265.256V351.233H266.636ZM265.256 346.013V348.03H266.471C266.651 348.03 266.816 348.005 266.966 347.955C267.116 347.9 267.246 347.825 267.356 347.73C267.466 347.63 267.551 347.515 267.611 347.385C267.671 347.25 267.701 347.103 267.701 346.943C267.701 346.828 267.681 346.715 267.641 346.605C267.601 346.49 267.533 346.39 267.438 346.305C267.343 346.215 267.216 346.145 267.056 346.095C266.901 346.04 266.706 346.013 266.471 346.013H265.256ZM266.523 344.805C267.008 344.805 267.426 344.853 267.776 344.948C268.131 345.043 268.423 345.173 268.653 345.338C268.883 345.503 269.053 345.7 269.163 345.93C269.273 346.155 269.328 346.4 269.328 346.665C269.328 346.83 269.306 347.003 269.261 347.183C269.221 347.358 269.146 347.528 269.036 347.693C268.931 347.858 268.786 348.008 268.601 348.143C268.416 348.278 268.181 348.383 267.896 348.458C268.151 348.513 268.383 348.59 268.593 348.69C268.803 348.785 268.983 348.908 269.133 349.058C269.283 349.203 269.398 349.375 269.478 349.575C269.563 349.77 269.606 349.99 269.606 350.235C269.606 350.625 269.523 350.963 269.358 351.248C269.198 351.533 268.981 351.768 268.706 351.953C268.436 352.138 268.121 352.275 267.761 352.365C267.406 352.455 267.033 352.5 266.643 352.5H263.493V344.805H266.523ZM275.102 349.215C274.567 349.24 274.117 349.288 273.752 349.358C273.387 349.423 273.095 349.508 272.875 349.613C272.655 349.718 272.497 349.84 272.402 349.98C272.307 350.12 272.26 350.273 272.26 350.438C272.26 350.763 272.355 350.995 272.545 351.135C272.74 351.275 272.992 351.345 273.302 351.345C273.682 351.345 274.01 351.278 274.285 351.143C274.565 351.003 274.837 350.793 275.102 350.513V349.215ZM270.857 345.878C271.742 345.068 272.807 344.663 274.052 344.663C274.502 344.663 274.905 344.738 275.26 344.888C275.615 345.033 275.915 345.238 276.16 345.503C276.405 345.763 276.59 346.075 276.715 346.44C276.845 346.805 276.91 347.205 276.91 347.64V352.5H276.07C275.895 352.5 275.76 352.475 275.665 352.425C275.57 352.37 275.495 352.263 275.44 352.103L275.275 351.548C275.08 351.723 274.89 351.878 274.705 352.013C274.52 352.143 274.327 352.253 274.127 352.343C273.927 352.433 273.712 352.5 273.482 352.545C273.257 352.595 273.007 352.62 272.732 352.62C272.407 352.62 272.107 352.577 271.832 352.493C271.557 352.403 271.32 352.27 271.12 352.095C270.92 351.92 270.765 351.703 270.655 351.443C270.545 351.183 270.49 350.88 270.49 350.535C270.49 350.34 270.522 350.148 270.587 349.958C270.652 349.763 270.757 349.578 270.902 349.403C271.052 349.228 271.245 349.063 271.48 348.908C271.715 348.753 272.002 348.618 272.342 348.503C272.687 348.388 273.087 348.295 273.542 348.225C273.997 348.15 274.517 348.105 275.102 348.09V347.64C275.102 347.125 274.992 346.745 274.772 346.5C274.552 346.25 274.235 346.125 273.82 346.125C273.52 346.125 273.27 346.16 273.07 346.23C272.875 346.3 272.702 346.38 272.552 346.47C272.402 346.555 272.265 346.633 272.14 346.703C272.02 346.773 271.885 346.808 271.735 346.808C271.605 346.808 271.495 346.775 271.405 346.71C271.315 346.64 271.242 346.56 271.187 346.47L270.857 345.878ZM285.359 344.805V352.5H283.507V349.095H280.507V352.5H278.654V344.805H280.507V347.723H283.507V344.805H285.359ZM289.114 344.805V352.5H287.254V344.805H289.114ZM289.369 342.563C289.369 342.723 289.337 342.873 289.272 343.013C289.207 343.153 289.119 343.275 289.009 343.38C288.904 343.485 288.779 343.57 288.634 343.635C288.489 343.695 288.334 343.725 288.169 343.725C288.009 343.725 287.857 343.695 287.712 343.635C287.572 343.57 287.449 343.485 287.344 343.38C287.239 343.275 287.154 343.153 287.089 343.013C287.029 342.873 286.999 342.723 286.999 342.563C286.999 342.398 287.029 342.243 287.089 342.098C287.154 341.953 287.239 341.828 287.344 341.723C287.449 341.618 287.572 341.535 287.712 341.475C287.857 341.41 288.009 341.378 288.169 341.378C288.334 341.378 288.489 341.41 288.634 341.475C288.779 341.535 288.904 341.618 289.009 341.723C289.119 341.828 289.207 341.953 289.272 342.098C289.337 342.243 289.369 342.398 289.369 342.563ZM297.918 344.805V352.5H296.065V348.008C296.065 347.893 296.07 347.768 296.08 347.633C296.095 347.493 296.113 347.353 296.133 347.213C296.033 347.443 295.923 347.645 295.803 347.82C295.793 347.83 295.743 347.9 295.653 348.03C295.563 348.155 295.445 348.318 295.3 348.518C295.16 348.718 295 348.945 294.82 349.2C294.64 349.45 294.458 349.705 294.273 349.965C293.838 350.58 293.345 351.275 292.795 352.05C292.725 352.155 292.633 352.258 292.518 352.358C292.408 352.458 292.28 352.507 292.135 352.507H291.003V344.813H292.855V349.305C292.855 349.42 292.848 349.548 292.833 349.688C292.823 349.823 292.808 349.96 292.788 350.1C292.898 349.855 293.008 349.653 293.118 349.493C293.123 349.483 293.17 349.415 293.26 349.29C293.35 349.165 293.465 349.003 293.605 348.803C293.75 348.603 293.913 348.378 294.093 348.128C294.273 347.873 294.455 347.613 294.64 347.348C295.075 346.733 295.57 346.038 296.125 345.263C296.195 345.153 296.288 345.05 296.403 344.955C296.518 344.855 296.648 344.805 296.793 344.805H297.918ZM294.565 342.855C294.75 342.855 294.905 342.835 295.03 342.795C295.155 342.755 295.255 342.69 295.33 342.6C295.405 342.505 295.458 342.38 295.488 342.225C295.518 342.07 295.533 341.88 295.533 341.655H296.628C296.758 341.655 296.853 341.71 296.913 341.82C296.978 341.925 297.01 342.043 297.01 342.173C297.01 342.428 296.953 342.66 296.838 342.87C296.723 343.075 296.558 343.25 296.343 343.395C296.128 343.535 295.87 343.645 295.57 343.725C295.27 343.8 294.935 343.838 294.565 343.838C294.195 343.838 293.86 343.8 293.56 343.725C293.26 343.645 293.003 343.535 292.788 343.395C292.573 343.25 292.408 343.075 292.293 342.87C292.178 342.66 292.12 342.428 292.12 342.173C292.12 342.043 292.15 341.925 292.21 341.82C292.275 341.71 292.373 341.655 292.503 341.655H293.598C293.598 341.88 293.613 342.07 293.643 342.225C293.673 342.38 293.725 342.505 293.8 342.6C293.875 342.69 293.973 342.755 294.093 342.795C294.218 342.835 294.375 342.855 294.565 342.855ZM310.1 352.5H308.248V346.178H305.248V352.5H303.395V344.805H310.1V352.5ZM313.788 350.505C313.998 350.76 314.225 350.94 314.47 351.045C314.72 351.15 314.99 351.203 315.28 351.203C315.56 351.203 315.813 351.15 316.038 351.045C316.263 350.94 316.453 350.78 316.608 350.565C316.768 350.35 316.89 350.08 316.975 349.755C317.06 349.425 317.103 349.038 317.103 348.593C317.103 348.143 317.065 347.763 316.99 347.453C316.92 347.138 316.818 346.883 316.683 346.688C316.548 346.493 316.383 346.35 316.188 346.26C315.998 346.17 315.78 346.125 315.535 346.125C315.15 346.125 314.823 346.208 314.553 346.373C314.283 346.533 314.028 346.76 313.788 347.055V350.505ZM313.69 345.855C314.005 345.5 314.363 345.213 314.763 344.993C315.163 344.773 315.633 344.663 316.173 344.663C316.593 344.663 316.975 344.75 317.32 344.925C317.67 345.1 317.97 345.355 318.22 345.69C318.475 346.02 318.67 346.43 318.805 346.92C318.945 347.405 319.015 347.963 319.015 348.593C319.015 349.168 318.938 349.7 318.783 350.19C318.628 350.68 318.405 351.105 318.115 351.465C317.83 351.825 317.483 352.108 317.073 352.313C316.668 352.513 316.213 352.612 315.708 352.612C315.278 352.612 314.91 352.547 314.605 352.418C314.3 352.283 314.028 352.098 313.788 351.863V355.012H311.935V344.805H313.068C313.308 344.805 313.465 344.918 313.54 345.143L313.69 345.855ZM323.851 344.685C324.421 344.685 324.939 344.778 325.404 344.963C325.874 345.148 326.274 345.41 326.604 345.75C326.939 346.09 327.196 346.505 327.376 346.995C327.556 347.485 327.646 348.033 327.646 348.638C327.646 349.248 327.556 349.798 327.376 350.288C327.196 350.778 326.939 351.195 326.604 351.54C326.274 351.885 325.874 352.15 325.404 352.335C324.939 352.52 324.421 352.612 323.851 352.612C323.276 352.612 322.754 352.52 322.284 352.335C321.814 352.15 321.411 351.885 321.076 351.54C320.746 351.195 320.489 350.778 320.304 350.288C320.124 349.798 320.034 349.248 320.034 348.638C320.034 348.033 320.124 347.485 320.304 346.995C320.489 346.505 320.746 346.09 321.076 345.75C321.411 345.41 321.814 345.148 322.284 344.963C322.754 344.778 323.276 344.685 323.851 344.685ZM323.851 351.188C324.491 351.188 324.964 350.973 325.269 350.543C325.579 350.113 325.734 349.483 325.734 348.653C325.734 347.823 325.579 347.19 325.269 346.755C324.964 346.32 324.491 346.103 323.851 346.103C323.201 346.103 322.719 346.323 322.404 346.763C322.094 347.198 321.939 347.828 321.939 348.653C321.939 349.478 322.094 350.108 322.404 350.543C322.719 350.973 323.201 351.188 323.851 351.188ZM335.765 352.5H333.912V346.178H330.912V352.5H329.06V344.805H335.765V352.5ZM337.54 347.198H341.425V348.743H337.54V347.198ZM55.5125 363.293C55.6025 363.148 55.725 363.03 55.88 362.94C56.035 362.85 56.2 362.805 56.375 362.805H57.83L56.0375 365.663C55.9125 365.863 55.785 366.025 55.655 366.15C55.525 366.27 55.3675 366.365 55.1825 366.435C55.4325 366.51 55.6375 366.623 55.7975 366.773C55.9575 366.918 56.1025 367.103 56.2325 367.328L58.0325 370.5H56.75C56.425 370.5 56.1725 370.445 55.9925 370.335C55.8125 370.225 55.66 370.068 55.535 369.863L54.4025 367.733C54.3025 367.548 54.1725 367.41 54.0125 367.32C53.8575 367.23 53.675 367.185 53.465 367.185H52.7675V370.5H50.915V362.805H52.7675V365.978H53.3675C53.5775 365.978 53.745 365.94 53.87 365.865C54 365.785 54.11 365.665 54.2 365.505L55.5125 363.293ZM62.1862 362.685C62.7562 362.685 63.2737 362.778 63.7387 362.963C64.2087 363.148 64.6087 363.41 64.9387 363.75C65.2737 364.09 65.5312 364.505 65.7112 364.995C65.8912 365.485 65.9812 366.033 65.9812 366.638C65.9812 367.248 65.8912 367.798 65.7112 368.288C65.5312 368.778 65.2737 369.195 64.9387 369.54C64.6087 369.885 64.2087 370.15 63.7387 370.335C63.2737 370.52 62.7562 370.612 62.1862 370.612C61.6112 370.612 61.0887 370.52 60.6187 370.335C60.1487 370.15 59.7462 369.885 59.4112 369.54C59.0812 369.195 58.8237 368.778 58.6387 368.288C58.4587 367.798 58.3687 367.248 58.3687 366.638C58.3687 366.033 58.4587 365.485 58.6387 364.995C58.8237 364.505 59.0812 364.09 59.4112 363.75C59.7462 363.41 60.1487 363.148 60.6187 362.963C61.0887 362.778 61.6112 362.685 62.1862 362.685ZM62.1862 369.188C62.8262 369.188 63.2987 368.973 63.6037 368.543C63.9137 368.113 64.0687 367.483 64.0687 366.653C64.0687 365.823 63.9137 365.19 63.6037 364.755C63.2987 364.32 62.8262 364.103 62.1862 364.103C61.5362 364.103 61.0537 364.323 60.7387 364.763C60.4287 365.198 60.2737 365.828 60.2737 366.653C60.2737 367.478 60.4287 368.108 60.7387 368.543C61.0537 368.973 61.5362 369.188 62.1862 369.188ZM76.312 362.79V370.5H74.6395V366.21C74.6395 366.035 74.647 365.838 74.662 365.618C74.682 365.398 74.712 365.193 74.752 365.003L72.487 369.158C72.377 369.373 72.202 369.48 71.962 369.48H71.767C71.527 369.48 71.352 369.373 71.242 369.158L68.947 364.98C68.982 365.17 69.0095 365.378 69.0295 365.603C69.0545 365.828 69.067 366.03 69.067 366.21V370.5H67.3945V362.79H68.9245C69.0545 362.79 69.182 362.818 69.307 362.873C69.437 362.928 69.5445 363.038 69.6295 363.203L71.4445 366.443C71.5245 366.593 71.5995 366.753 71.6695 366.923C71.7395 367.088 71.8045 367.255 71.8645 367.425C71.9245 367.255 71.987 367.085 72.052 366.915C72.122 366.745 72.197 366.588 72.277 366.443L74.077 363.203C74.167 363.033 74.2745 362.923 74.3995 362.873C74.5245 362.818 74.652 362.79 74.782 362.79H76.312ZM84.8514 370.5H82.9989V364.178H79.9989V370.5H78.1464V362.805H84.8514V370.5ZM90.7515 367.215C90.2165 367.24 89.7665 367.288 89.4015 367.358C89.0365 367.423 88.744 367.508 88.524 367.613C88.304 367.718 88.1465 367.84 88.0515 367.98C87.9565 368.12 87.909 368.273 87.909 368.438C87.909 368.763 88.004 368.995 88.194 369.135C88.389 369.275 88.6415 369.345 88.9515 369.345C89.3315 369.345 89.659 369.278 89.934 369.143C90.214 369.003 90.4865 368.793 90.7515 368.513V367.215ZM86.5065 363.878C87.3915 363.068 88.4565 362.663 89.7015 362.663C90.1515 362.663 90.554 362.738 90.909 362.888C91.264 363.033 91.564 363.238 91.809 363.503C92.054 363.763 92.239 364.075 92.364 364.44C92.494 364.805 92.559 365.205 92.559 365.64V370.5H91.719C91.544 370.5 91.409 370.475 91.314 370.425C91.219 370.37 91.144 370.263 91.089 370.103L90.924 369.548C90.729 369.723 90.539 369.878 90.354 370.013C90.169 370.143 89.9765 370.253 89.7765 370.343C89.5765 370.433 89.3615 370.5 89.1315 370.545C88.9065 370.595 88.6565 370.62 88.3815 370.62C88.0565 370.62 87.7565 370.577 87.4815 370.493C87.2065 370.403 86.969 370.27 86.769 370.095C86.569 369.92 86.414 369.703 86.304 369.443C86.194 369.183 86.139 368.88 86.139 368.535C86.139 368.34 86.1715 368.148 86.2365 367.958C86.3015 367.763 86.4065 367.578 86.5515 367.403C86.7015 367.228 86.894 367.063 87.129 366.908C87.364 366.753 87.6515 366.618 87.9915 366.503C88.3365 366.388 88.7365 366.295 89.1915 366.225C89.6465 366.15 90.1665 366.105 90.7515 366.09V365.64C90.7515 365.125 90.6415 364.745 90.4215 364.5C90.2015 364.25 89.884 364.125 89.469 364.125C89.169 364.125 88.919 364.16 88.719 364.23C88.524 364.3 88.3515 364.38 88.2015 364.47C88.0515 364.555 87.914 364.633 87.789 364.703C87.669 364.773 87.534 364.808 87.384 364.808C87.254 364.808 87.144 364.775 87.054 364.71C86.964 364.64 86.8915 364.56 86.8365 364.47L86.5065 363.878ZM101.009 362.805V370.5H99.1562V367.095H96.1562V370.5H94.3037V362.805H96.1562V365.723H99.1562V362.805H101.009ZM104.764 362.805V370.5H102.904V362.805H104.764ZM105.019 360.563C105.019 360.723 104.986 360.873 104.921 361.013C104.856 361.153 104.769 361.275 104.659 361.38C104.554 361.485 104.429 361.57 104.284 361.635C104.139 361.695 103.984 361.725 103.819 361.725C103.659 361.725 103.506 361.695 103.361 361.635C103.221 361.57 103.099 361.485 102.994 361.38C102.889 361.275 102.804 361.153 102.739 361.013C102.679 360.873 102.649 360.723 102.649 360.563C102.649 360.398 102.679 360.243 102.739 360.098C102.804 359.953 102.889 359.828 102.994 359.723C103.099 359.618 103.221 359.535 103.361 359.475C103.506 359.41 103.659 359.378 103.819 359.378C103.984 359.378 104.139 359.41 104.284 359.475C104.429 359.535 104.554 359.618 104.659 359.723C104.769 359.828 104.856 359.953 104.921 360.098C104.986 360.243 105.019 360.398 105.019 360.563ZM108.697 362.805V370.5H106.844V362.805H108.697ZM107.587 360.81C107.587 360.95 107.559 361.083 107.504 361.208C107.449 361.328 107.372 361.433 107.272 361.523C107.177 361.613 107.064 361.685 106.934 361.74C106.809 361.79 106.677 361.815 106.537 361.815C106.402 361.815 106.272 361.79 106.147 361.74C106.027 361.685 105.919 361.613 105.824 361.523C105.729 361.433 105.654 361.328 105.599 361.208C105.544 361.083 105.517 360.95 105.517 360.81C105.517 360.665 105.544 360.53 105.599 360.405C105.654 360.275 105.729 360.163 105.824 360.068C105.919 359.973 106.027 359.898 106.147 359.843C106.272 359.788 106.402 359.76 106.537 359.76C106.677 359.76 106.809 359.788 106.934 359.843C107.064 359.898 107.177 359.973 107.272 360.068C107.372 360.163 107.449 360.275 107.504 360.405C107.559 360.53 107.587 360.665 107.587 360.81ZM110.137 360.81C110.137 360.95 110.109 361.083 110.054 361.208C109.999 361.328 109.924 361.433 109.829 361.523C109.739 361.613 109.629 361.685 109.499 361.74C109.374 361.79 109.239 361.815 109.094 361.815C108.954 361.815 108.822 361.79 108.697 361.74C108.572 361.685 108.462 361.613 108.367 361.523C108.277 361.433 108.204 361.328 108.149 361.208C108.094 361.083 108.067 360.95 108.067 360.81C108.067 360.665 108.094 360.53 108.149 360.405C108.204 360.275 108.277 360.163 108.367 360.068C108.462 359.973 108.572 359.898 108.697 359.843C108.822 359.788 108.954 359.76 109.094 359.76C109.239 359.76 109.374 359.788 109.499 359.843C109.629 359.898 109.739 359.973 109.829 360.068C109.924 360.163 109.999 360.275 110.054 360.405C110.109 360.53 110.137 360.665 110.137 360.81ZM120.945 362.805V370.5H119.093V367.095H116.093V370.5H114.24V362.805H116.093V365.723H119.093V362.805H120.945ZM126.845 367.215C126.31 367.24 125.86 367.288 125.495 367.358C125.13 367.423 124.838 367.508 124.618 367.613C124.398 367.718 124.24 367.84 124.145 367.98C124.05 368.12 124.003 368.273 124.003 368.438C124.003 368.763 124.098 368.995 124.288 369.135C124.483 369.275 124.735 369.345 125.045 369.345C125.425 369.345 125.753 369.278 126.028 369.143C126.308 369.003 126.58 368.793 126.845 368.513V367.215ZM122.6 363.878C123.485 363.068 124.55 362.663 125.795 362.663C126.245 362.663 126.648 362.738 127.003 362.888C127.358 363.033 127.658 363.238 127.903 363.503C128.148 363.763 128.333 364.075 128.458 364.44C128.588 364.805 128.653 365.205 128.653 365.64V370.5H127.813C127.638 370.5 127.503 370.475 127.408 370.425C127.313 370.37 127.238 370.263 127.183 370.103L127.018 369.548C126.823 369.723 126.633 369.878 126.448 370.013C126.263 370.143 126.07 370.253 125.87 370.343C125.67 370.433 125.455 370.5 125.225 370.545C125 370.595 124.75 370.62 124.475 370.62C124.15 370.62 123.85 370.577 123.575 370.493C123.3 370.403 123.063 370.27 122.863 370.095C122.663 369.92 122.508 369.703 122.398 369.443C122.288 369.183 122.233 368.88 122.233 368.535C122.233 368.34 122.265 368.148 122.33 367.958C122.395 367.763 122.5 367.578 122.645 367.403C122.795 367.228 122.988 367.063 123.223 366.908C123.458 366.753 123.745 366.618 124.085 366.503C124.43 366.388 124.83 366.295 125.285 366.225C125.74 366.15 126.26 366.105 126.845 366.09V365.64C126.845 365.125 126.735 364.745 126.515 364.5C126.295 364.25 125.978 364.125 125.563 364.125C125.263 364.125 125.013 364.16 124.813 364.23C124.618 364.3 124.445 364.38 124.295 364.47C124.145 364.555 124.008 364.633 123.883 364.703C123.763 364.773 123.628 364.808 123.478 364.808C123.348 364.808 123.238 364.775 123.148 364.71C123.058 364.64 122.985 364.56 122.93 364.47L122.6 363.878ZM137.66 369.263C138.3 369.263 138.777 369.058 139.092 368.648C139.407 368.238 139.565 367.638 139.565 366.848C139.565 366.063 139.41 365.465 139.1 365.055C138.795 364.645 138.327 364.44 137.697 364.44C137.067 364.44 136.587 364.635 136.257 365.025C135.927 365.41 135.762 365.988 135.762 366.758C135.762 367.573 135.917 368.195 136.227 368.625C136.542 369.05 137.02 369.263 137.66 369.263ZM138.2 361.41C137.73 361.44 137.327 361.533 136.992 361.688C136.662 361.838 136.387 362.043 136.167 362.303C135.952 362.558 135.787 362.865 135.672 363.225C135.562 363.58 135.497 363.975 135.477 364.41C135.602 364.215 135.755 364.038 135.935 363.878C136.12 363.713 136.325 363.573 136.55 363.458C136.78 363.338 137.027 363.245 137.292 363.18C137.562 363.115 137.85 363.083 138.155 363.083C138.665 363.083 139.125 363.173 139.535 363.353C139.945 363.533 140.292 363.788 140.577 364.118C140.867 364.448 141.087 364.845 141.237 365.31C141.392 365.77 141.47 366.28 141.47 366.84C141.47 367.42 141.377 367.943 141.192 368.408C141.012 368.873 140.755 369.27 140.42 369.6C140.09 369.925 139.69 370.175 139.22 370.35C138.75 370.525 138.23 370.612 137.66 370.612C137.105 370.612 136.592 370.522 136.122 370.343C135.657 370.163 135.255 369.87 134.915 369.465C134.575 369.06 134.31 368.535 134.12 367.89C133.93 367.24 133.835 366.448 133.835 365.513C133.835 364.728 133.907 363.998 134.052 363.323C134.197 362.648 134.435 362.058 134.765 361.553C135.095 361.043 135.527 360.633 136.062 360.323C136.597 360.013 137.257 359.828 138.042 359.768L140.78 359.558L140.877 360.518C140.897 360.723 140.867 360.898 140.787 361.043C140.707 361.183 140.565 361.258 140.36 361.268L138.2 361.41ZM146.972 367.215C146.437 367.24 145.987 367.288 145.622 367.358C145.257 367.423 144.965 367.508 144.745 367.613C144.525 367.718 144.367 367.84 144.272 367.98C144.177 368.12 144.13 368.273 144.13 368.438C144.13 368.763 144.225 368.995 144.415 369.135C144.61 369.275 144.862 369.345 145.172 369.345C145.552 369.345 145.88 369.278 146.155 369.143C146.435 369.003 146.707 368.793 146.972 368.513V367.215ZM142.727 363.878C143.612 363.068 144.677 362.663 145.922 362.663C146.372 362.663 146.775 362.738 147.13 362.888C147.485 363.033 147.785 363.238 148.03 363.503C148.275 363.763 148.46 364.075 148.585 364.44C148.715 364.805 148.78 365.205 148.78 365.64V370.5H147.94C147.765 370.5 147.63 370.475 147.535 370.425C147.44 370.37 147.365 370.263 147.31 370.103L147.145 369.548C146.95 369.723 146.76 369.878 146.575 370.013C146.39 370.143 146.197 370.253 145.997 370.343C145.797 370.433 145.582 370.5 145.352 370.545C145.127 370.595 144.877 370.62 144.602 370.62C144.277 370.62 143.977 370.577 143.702 370.493C143.427 370.403 143.19 370.27 142.99 370.095C142.79 369.92 142.635 369.703 142.525 369.443C142.415 369.183 142.36 368.88 142.36 368.535C142.36 368.34 142.392 368.148 142.457 367.958C142.522 367.763 142.627 367.578 142.772 367.403C142.922 367.228 143.115 367.063 143.35 366.908C143.585 366.753 143.872 366.618 144.212 366.503C144.557 366.388 144.957 366.295 145.412 366.225C145.867 366.15 146.387 366.105 146.972 366.09V365.64C146.972 365.125 146.862 364.745 146.642 364.5C146.422 364.25 146.105 364.125 145.69 364.125C145.39 364.125 145.14 364.16 144.94 364.23C144.745 364.3 144.572 364.38 144.422 364.47C144.272 364.555 144.135 364.633 144.01 364.703C143.89 364.773 143.755 364.808 143.605 364.808C143.475 364.808 143.365 364.775 143.275 364.71C143.185 364.64 143.112 364.56 143.057 364.47L142.727 363.878ZM161.752 370.5H160.469C160.139 370.5 159.889 370.45 159.719 370.35C159.549 370.25 159.414 370.088 159.314 369.863L158.174 367.733C158.079 367.548 157.952 367.41 157.792 367.32C157.637 367.23 157.454 367.185 157.244 367.185H156.637V370.5H154.844V367.185H154.229C154.024 367.185 153.842 367.23 153.682 367.32C153.522 367.41 153.394 367.548 153.299 367.733L152.159 369.863C152.059 370.088 151.924 370.25 151.754 370.35C151.584 370.45 151.334 370.5 151.004 370.5H149.729L151.529 367.328C151.654 367.103 151.797 366.918 151.957 366.773C152.117 366.623 152.322 366.508 152.572 366.428C152.387 366.363 152.229 366.27 152.099 366.15C151.969 366.025 151.844 365.863 151.724 365.663L149.924 362.805H151.387C151.557 362.805 151.712 362.85 151.852 362.94C151.997 363.025 152.109 363.143 152.189 363.293L153.494 365.505C153.589 365.665 153.699 365.785 153.824 365.865C153.954 365.94 154.124 365.978 154.334 365.978H154.844V362.805H156.637V365.978H157.109C157.319 365.978 157.492 365.94 157.627 365.865C157.767 365.785 157.884 365.665 157.979 365.505L159.284 363.293C159.364 363.143 159.474 363.025 159.614 362.94C159.759 362.85 159.919 362.805 160.094 362.805H161.549L159.749 365.663C159.629 365.863 159.504 366.025 159.374 366.15C159.244 366.27 159.087 366.363 158.902 366.428C159.152 366.508 159.357 366.623 159.517 366.773C159.677 366.918 159.819 367.103 159.944 367.328L161.752 370.5ZM166.85 367.215C166.315 367.24 165.865 367.288 165.5 367.358C165.135 367.423 164.843 367.508 164.623 367.613C164.403 367.718 164.245 367.84 164.15 367.98C164.055 368.12 164.008 368.273 164.008 368.438C164.008 368.763 164.103 368.995 164.293 369.135C164.488 369.275 164.74 369.345 165.05 369.345C165.43 369.345 165.758 369.278 166.033 369.143C166.313 369.003 166.585 368.793 166.85 368.513V367.215ZM162.605 363.878C163.49 363.068 164.555 362.663 165.8 362.663C166.25 362.663 166.653 362.738 167.008 362.888C167.363 363.033 167.663 363.238 167.908 363.503C168.153 363.763 168.338 364.075 168.463 364.44C168.593 364.805 168.658 365.205 168.658 365.64V370.5H167.818C167.643 370.5 167.508 370.475 167.413 370.425C167.318 370.37 167.243 370.263 167.188 370.103L167.023 369.548C166.828 369.723 166.638 369.878 166.453 370.013C166.268 370.143 166.075 370.253 165.875 370.343C165.675 370.433 165.46 370.5 165.23 370.545C165.005 370.595 164.755 370.62 164.48 370.62C164.155 370.62 163.855 370.577 163.58 370.493C163.305 370.403 163.068 370.27 162.868 370.095C162.668 369.92 162.513 369.703 162.403 369.443C162.293 369.183 162.238 368.88 162.238 368.535C162.238 368.34 162.27 368.148 162.335 367.958C162.4 367.763 162.505 367.578 162.65 367.403C162.8 367.228 162.993 367.063 163.228 366.908C163.463 366.753 163.75 366.618 164.09 366.503C164.435 366.388 164.835 366.295 165.29 366.225C165.745 366.15 166.265 366.105 166.85 366.09V365.64C166.85 365.125 166.74 364.745 166.52 364.5C166.3 364.25 165.983 364.125 165.568 364.125C165.268 364.125 165.018 364.16 164.818 364.23C164.623 364.3 164.45 364.38 164.3 364.47C164.15 364.555 164.013 364.633 163.888 364.703C163.768 364.773 163.633 364.808 163.483 364.808C163.353 364.808 163.243 364.775 163.153 364.71C163.063 364.64 162.99 364.56 162.935 364.47L162.605 363.878ZM177.107 362.805V370.5H175.255V367.095H172.255V370.5H170.402V362.805H172.255V365.723H175.255V362.805H177.107ZM185.932 362.805L181.74 372.615C181.685 372.745 181.612 372.842 181.522 372.907C181.437 372.977 181.305 373.012 181.125 373.012H179.745L181.185 369.923L178.072 362.805H179.7C179.845 362.805 179.957 362.84 180.037 362.91C180.122 362.98 180.185 363.06 180.225 363.15L181.86 367.14C181.915 367.275 181.96 367.41 181.995 367.545C182.035 367.68 182.072 367.818 182.107 367.958C182.152 367.818 182.197 367.68 182.242 367.545C182.287 367.405 182.337 367.268 182.392 367.133L183.937 363.15C183.977 363.05 184.042 362.968 184.132 362.903C184.227 362.838 184.332 362.805 184.447 362.805H185.932ZM196.012 364.433C195.957 364.503 195.902 364.558 195.847 364.598C195.797 364.638 195.722 364.658 195.622 364.658C195.527 364.658 195.435 364.63 195.345 364.575C195.255 364.515 195.147 364.45 195.022 364.38C194.897 364.305 194.747 364.24 194.572 364.185C194.402 364.125 194.19 364.095 193.935 364.095C193.61 364.095 193.325 364.155 193.08 364.275C192.835 364.39 192.63 364.558 192.465 364.778C192.305 364.998 192.185 365.265 192.105 365.58C192.025 365.89 191.985 366.243 191.985 366.638C191.985 367.048 192.027 367.413 192.112 367.733C192.202 368.053 192.33 368.323 192.495 368.543C192.66 368.758 192.86 368.923 193.095 369.038C193.33 369.148 193.595 369.203 193.89 369.203C194.185 369.203 194.422 369.168 194.602 369.098C194.787 369.023 194.942 368.943 195.067 368.858C195.192 368.768 195.3 368.688 195.39 368.618C195.485 368.543 195.59 368.505 195.705 368.505C195.855 368.505 195.967 368.563 196.042 368.678L196.575 369.353C196.37 369.593 196.147 369.795 195.907 369.96C195.667 370.12 195.417 370.25 195.157 370.35C194.902 370.445 194.637 370.512 194.362 370.552C194.092 370.592 193.822 370.612 193.552 370.612C193.077 370.612 192.63 370.525 192.21 370.35C191.79 370.17 191.422 369.91 191.107 369.57C190.792 369.23 190.542 368.815 190.357 368.325C190.177 367.83 190.087 367.268 190.087 366.638C190.087 366.073 190.167 365.55 190.327 365.07C190.492 364.585 190.732 364.168 191.047 363.818C191.362 363.463 191.752 363.185 192.217 362.985C192.682 362.785 193.217 362.685 193.822 362.685C194.397 362.685 194.9 362.778 195.33 362.963C195.765 363.148 196.155 363.413 196.5 363.758L196.012 364.433ZM204.726 362.805L200.534 372.615C200.479 372.745 200.406 372.842 200.316 372.907C200.231 372.977 200.099 373.012 199.919 373.012H198.539L199.979 369.923L196.866 362.805H198.494C198.639 362.805 198.751 362.84 198.831 362.91C198.916 362.98 198.979 363.06 199.019 363.15L200.654 367.14C200.709 367.275 200.754 367.41 200.789 367.545C200.829 367.68 200.866 367.818 200.901 367.958C200.946 367.818 200.991 367.68 201.036 367.545C201.081 367.405 201.131 367.268 201.186 367.133L202.731 363.15C202.771 363.05 202.836 362.968 202.926 362.903C203.021 362.838 203.126 362.805 203.241 362.805H204.726ZM214.564 362.79V370.5H212.891V366.21C212.891 366.035 212.899 365.838 212.914 365.618C212.934 365.398 212.964 365.193 213.004 365.003L210.739 369.158C210.629 369.373 210.454 369.48 210.214 369.48H210.019C209.779 369.48 209.604 369.373 209.494 369.158L207.199 364.98C207.234 365.17 207.261 365.378 207.281 365.603C207.306 365.828 207.319 366.03 207.319 366.21V370.5H205.646V362.79H207.176C207.306 362.79 207.434 362.818 207.559 362.873C207.689 362.928 207.796 363.038 207.881 363.203L209.696 366.443C209.776 366.593 209.851 366.753 209.921 366.923C209.991 367.088 210.056 367.255 210.116 367.425C210.176 367.255 210.239 367.085 210.304 366.915C210.374 366.745 210.449 366.588 210.529 366.443L212.329 363.203C212.419 363.033 212.526 362.923 212.651 362.873C212.776 362.818 212.904 362.79 213.034 362.79H214.564ZM223.388 362.805L219.196 372.615C219.141 372.745 219.068 372.842 218.978 372.907C218.893 372.977 218.761 373.012 218.581 373.012H217.201L218.641 369.923L215.528 362.805H217.156C217.301 362.805 217.413 362.84 217.493 362.91C217.578 362.98 217.641 363.06 217.681 363.15L219.316 367.14C219.371 367.275 219.416 367.41 219.451 367.545C219.491 367.68 219.528 367.818 219.563 367.958C219.608 367.818 219.653 367.68 219.698 367.545C219.743 367.405 219.793 367.268 219.848 367.133L221.393 363.15C221.433 363.05 221.498 362.968 221.588 362.903C221.683 362.838 221.788 362.805 221.903 362.805H223.388Z" fill="black"/>
<path d="M62.325 60.5775C62.325 61.5225 62.2225 62.345 62.0175 63.045C61.8175 63.74 61.5375 64.315 61.1775 64.77C60.8225 65.225 60.4 65.565 59.91 65.79C59.425 66.01 58.9 66.12 58.335 66.12C57.77 66.12 57.245 66.01 56.76 65.79C56.28 65.565 55.8625 65.225 55.5075 64.77C55.1525 64.315 54.875 63.74 54.675 63.045C54.475 62.345 54.375 61.5225 54.375 60.5775C54.375 59.6275 54.475 58.805 54.675 58.11C54.875 57.415 55.1525 56.84 55.5075 56.385C55.8625 55.93 56.28 55.5925 56.76 55.3725C57.245 55.1475 57.77 55.035 58.335 55.035C58.9 55.035 59.425 55.1475 59.91 55.3725C60.4 55.5925 60.8225 55.93 61.1775 56.385C61.5375 56.84 61.8175 57.415 62.0175 58.11C62.2225 58.805 62.325 59.6275 62.325 60.5775ZM60.4125 60.5775C60.4125 59.7925 60.355 59.1425 60.24 58.6275C60.125 58.1125 59.97 57.7025 59.775 57.3975C59.585 57.0925 59.365 56.88 59.115 56.76C58.865 56.635 58.605 56.5725 58.335 56.5725C58.07 56.5725 57.8125 56.635 57.5625 56.76C57.3175 56.88 57.1 57.0925 56.91 57.3975C56.72 57.7025 56.5675 58.1125 56.4525 58.6275C56.3425 59.1425 56.2875 59.7925 56.2875 60.5775C56.2875 61.3625 56.3425 62.0125 56.4525 62.5275C56.5675 63.0425 56.72 63.4525 56.91 63.7575C57.1 64.0625 57.3175 64.2775 57.5625 64.4025C57.8125 64.5225 58.07 64.5825 58.335 64.5825C58.605 64.5825 58.865 64.5225 59.115 64.4025C59.365 64.2775 59.585 64.0625 59.775 63.7575C59.97 63.4525 60.125 63.0425 60.24 62.5275C60.355 62.0125 60.4125 61.3625 60.4125 60.5775ZM70.4637 64.6125V66H64.4637V64.6125H66.6612V58.29C66.6612 58.04 66.6687 57.7825 66.6837 57.5175L65.1237 58.8225C65.0337 58.8925 64.9437 58.9375 64.8537 58.9575C64.7687 58.9725 64.6862 58.9725 64.6062 58.9575C64.5312 58.9425 64.4637 58.9175 64.4037 58.8825C64.3437 58.8425 64.2987 58.8 64.2687 58.755L63.6837 57.9525L66.9912 55.14H68.5137V64.6125H70.4637Z" fill="#A7A7A7"/>
<g filter="url(#filter1_d_1198_4366)">
<rect x="97" y="89" width="258" height="212.51" rx="13.5317" fill="white" shape-rendering="crispEdges"/>
<g clip-path="url(#clip0_1198_4366)">
<path d="M212.971 137.708C212.971 123.854 201.106 112.681 186.393 112.681H177.534H159.658H141.782H124.063V129.366V146.051V162.736V179.422V196.107V212.792H141.782V196.256V179.571V162.885V146.2V129.366H159.5H177.218H194.936V146.051H186.077H177.218H159.658V162.736H177.376H186.235H195.094V179.422H177.376H159.658V196.107H177.376H186.235C200.948 196.107 212.812 184.934 212.812 171.079C212.812 164.673 210.281 158.863 206.01 154.394C210.281 150.073 212.971 144.263 212.971 137.708Z" fill="#3374FF"/>
<path fill-rule="evenodd" clip-rule="evenodd" d="M255.171 147.553C256.318 149.379 257.753 150.748 259.76 151.752C261.768 152.665 264.063 153.212 266.836 153.212C269.514 153.212 271.808 152.756 273.816 151.752C275.824 150.748 277.354 149.379 278.406 147.553C279.458 145.728 280.031 143.629 280.031 141.165C280.031 138.7 279.458 136.601 278.406 134.776C277.354 132.95 275.729 131.581 273.816 130.578C271.904 129.574 269.514 129.117 266.836 129.117C264.063 129.117 261.768 129.574 259.76 130.578C257.753 131.581 256.223 132.95 255.171 134.776C254.119 136.601 253.545 138.7 253.545 141.165C253.545 143.629 254.119 145.728 255.171 147.553ZM272.191 144.724C271.713 145.728 271.043 146.55 270.087 147.097C269.227 147.645 268.079 147.919 266.741 147.919C265.498 147.919 264.446 147.645 263.49 147.097C262.629 146.55 261.864 145.728 261.386 144.724C260.908 143.629 260.621 142.442 260.621 141.073C260.621 139.613 260.908 138.427 261.386 137.423C261.864 136.419 262.533 135.689 263.49 135.141C264.35 134.593 265.498 134.319 266.741 134.319C267.984 134.319 269.036 134.593 269.992 135.141C270.948 135.689 271.713 136.51 272.191 137.514C272.669 138.518 272.956 139.704 272.956 141.073C272.956 142.534 272.669 143.72 272.191 144.724ZM233.274 129.573H229.832V152.756H236.621V152.664H243.505C245.322 152.664 246.852 152.391 248.191 151.843C249.529 151.295 250.581 150.565 251.251 149.561C251.92 148.649 252.302 147.462 252.302 146.093C252.302 145.089 252.015 144.176 251.537 143.355C250.964 142.625 250.294 141.895 249.338 141.438C248.382 140.982 247.33 140.708 246.183 140.617V140.526C247.139 140.343 248 140.069 248.765 139.613C249.434 139.157 250.103 138.609 250.486 137.879C250.964 137.149 251.155 136.327 251.155 135.415C251.155 134.228 250.868 133.224 250.199 132.311C249.529 131.399 248.573 130.76 247.426 130.303C246.183 129.847 244.749 129.573 243.123 129.573H236.621H233.274ZM236.621 134.046V138.974H240.924C242.071 138.974 242.932 138.792 243.505 138.335C244.079 137.879 244.366 137.24 244.366 136.419C244.366 135.688 244.079 135.05 243.505 134.684C243.027 134.228 242.262 134.046 241.306 134.046H236.621ZM236.621 142.99H241.402C242.262 142.99 242.932 143.081 243.505 143.264C243.984 143.446 244.462 143.811 244.749 144.176C245.035 144.633 245.227 145.089 245.227 145.637C245.227 146.549 244.94 147.188 244.27 147.645C243.697 148.101 242.741 148.284 241.593 148.284H236.621V142.99ZM282.614 129.573H289.498V147.645H300.59V152.756H282.614V129.573ZM314.358 129.573H303.076V152.664H314.358C317.036 152.664 319.331 152.208 321.147 151.295C323.06 150.383 324.494 149.014 325.45 147.28C326.407 145.454 326.885 143.355 326.885 140.891C326.885 138.427 326.407 136.419 325.45 134.684C324.399 133.042 323.06 131.764 321.147 130.851C319.236 130.03 317.036 129.573 314.358 129.573ZM316.941 146.914C316.08 147.371 314.837 147.645 313.498 147.645V147.736H309.865V134.684H313.498C314.837 134.684 315.985 134.958 316.941 135.415C317.801 135.962 318.566 136.692 319.044 137.605C319.523 138.518 319.809 139.704 319.809 141.073C319.809 142.534 319.523 143.72 319.044 144.724C318.566 145.728 317.896 146.458 316.941 146.914ZM229.928 157.776H248.573V162.887H236.812V167.724H247.617V172.561H236.812V180.958H229.928V157.776ZM252.494 177.125C253.45 178.494 254.789 179.589 256.51 180.319C258.231 181.049 260.239 181.414 262.725 181.506C265.115 181.506 267.124 181.049 268.845 180.319C270.566 179.498 271.904 178.402 272.861 177.033C273.817 175.664 274.295 173.93 274.295 172.014V157.776H267.506V171.557C267.506 172.47 267.315 173.383 266.932 174.021C266.55 174.66 265.976 175.208 265.307 175.573C264.542 175.938 263.777 176.121 262.725 176.121C261.673 176.121 260.813 175.938 260.143 175.573C259.378 175.208 258.9 174.66 258.518 174.021C258.135 173.383 257.944 172.561 257.944 171.557V157.776H251.06V172.105C251.06 174.021 251.538 175.756 252.494 177.125ZM277.45 157.776H283.282L294.078 170.918H294.087V157.776H300.877V180.958H295.139L284.251 167.724H284.144V180.958H277.354V157.776H277.45ZM315.41 157.776H304.128V180.867H315.41C318.088 180.867 320.382 180.41 322.199 179.498C324.112 178.585 325.545 177.216 326.502 175.482C327.458 173.656 327.937 171.557 327.937 169.093C327.937 166.629 327.458 164.621 326.502 162.887C325.45 161.244 324.112 159.966 322.199 159.053C320.287 158.232 318.088 157.776 315.41 157.776ZM318.088 175.208C317.228 175.664 315.985 175.938 314.645 175.938H311.012V162.887H314.645C315.985 162.887 317.228 163.161 318.088 163.708C318.948 164.256 319.713 164.986 320.191 165.899C320.669 166.811 320.956 167.998 320.956 169.367C320.956 170.827 320.669 172.014 320.191 173.018C319.713 174.021 319.044 174.752 318.088 175.208Z" fill="black"/>
</g>
<rect x="124.063" y="240.787" width="203.873" height="37.0422" rx="18.5211" fill="url(#paint0_linear_1198_4366)"/>
<path d="M198.998 265.809H196.859V256.029H191.902V265.809H189.771V254.395H198.998V265.809ZM203.052 263.709C203.273 263.977 203.513 264.167 203.771 264.277C204.034 264.388 204.318 264.443 204.623 264.443C204.918 264.443 205.184 264.388 205.421 264.277C205.657 264.167 205.857 263.998 206.02 263.772C206.189 263.546 206.318 263.262 206.407 262.92C206.497 262.572 206.541 262.164 206.541 261.696C206.541 261.222 206.502 260.823 206.423 260.496C206.349 260.165 206.241 259.896 206.099 259.691C205.957 259.486 205.784 259.336 205.578 259.241C205.378 259.147 205.149 259.099 204.892 259.099C204.486 259.099 204.142 259.186 203.858 259.36C203.573 259.528 203.305 259.767 203.052 260.078V263.709ZM202.95 258.815C203.281 258.441 203.658 258.139 204.079 257.907C204.5 257.676 204.994 257.56 205.563 257.56C206.005 257.56 206.407 257.652 206.77 257.836C207.139 258.02 207.454 258.289 207.718 258.641C207.986 258.989 208.191 259.42 208.333 259.936C208.481 260.446 208.554 261.033 208.554 261.696C208.554 262.301 208.473 262.862 208.31 263.377C208.146 263.893 207.912 264.34 207.607 264.719C207.307 265.098 206.941 265.396 206.51 265.611C206.084 265.822 205.605 265.927 205.073 265.927C204.621 265.927 204.234 265.859 203.913 265.722C203.592 265.58 203.305 265.385 203.052 265.138V268.453H201.103V257.71H202.295C202.547 257.71 202.713 257.828 202.792 258.065L202.95 258.815ZM217.338 257.71V265.809H215.388V261.08C215.388 260.959 215.393 260.828 215.404 260.686C215.42 260.538 215.438 260.391 215.459 260.244C215.354 260.486 215.238 260.699 215.112 260.883C215.101 260.894 215.049 260.967 214.954 261.104C214.859 261.236 214.736 261.407 214.583 261.617C214.436 261.828 214.267 262.067 214.078 262.335C213.888 262.599 213.696 262.867 213.502 263.141C213.044 263.788 212.525 264.519 211.947 265.335C211.873 265.445 211.776 265.553 211.654 265.659C211.539 265.764 211.405 265.816 211.252 265.816H210.06V257.718H212.01V262.446C212.01 262.567 212.002 262.701 211.986 262.849C211.975 262.991 211.96 263.135 211.939 263.283C212.054 263.025 212.17 262.812 212.286 262.643C212.291 262.633 212.341 262.562 212.436 262.43C212.531 262.299 212.652 262.128 212.799 261.917C212.952 261.707 213.123 261.47 213.312 261.207C213.502 260.938 213.694 260.665 213.888 260.386C214.346 259.739 214.867 259.007 215.451 258.191C215.525 258.076 215.622 257.968 215.743 257.868C215.864 257.763 216.001 257.71 216.154 257.71H217.338ZM224.663 264.419V259.202H222.674C222.621 259.881 222.555 260.494 222.477 261.041C222.398 261.583 222.306 262.067 222.2 262.493C222.095 262.92 221.979 263.291 221.853 263.606C221.732 263.922 221.6 264.193 221.458 264.419H224.663ZM228.041 264.364V267.94C228.041 268.119 227.989 268.261 227.884 268.366C227.784 268.471 227.652 268.524 227.489 268.524H226.273V265.809H220.211V267.971C220.211 268.108 220.166 268.235 220.077 268.35C219.993 268.466 219.859 268.524 219.674 268.524H218.443V264.419H218.672C218.856 264.419 219.035 264.396 219.209 264.348C219.382 264.296 219.548 264.19 219.706 264.033C219.869 263.875 220.022 263.648 220.164 263.354C220.311 263.054 220.443 262.656 220.558 262.162C220.674 261.662 220.774 261.049 220.858 260.323C220.948 259.596 221.019 258.726 221.072 257.71H226.557V264.364H228.041ZM232.858 264.506C233.532 264.506 234.034 264.29 234.366 263.859C234.697 263.427 234.863 262.796 234.863 261.964C234.863 261.138 234.7 260.509 234.374 260.078C234.053 259.646 233.561 259.431 232.898 259.431C232.235 259.431 231.73 259.636 231.382 260.046C231.035 260.452 230.861 261.059 230.861 261.87C230.861 262.728 231.024 263.383 231.351 263.835C231.682 264.283 232.185 264.506 232.858 264.506ZM233.427 256.242C232.932 256.273 232.508 256.371 232.156 256.534C231.808 256.692 231.519 256.907 231.288 257.181C231.061 257.449 230.888 257.773 230.767 258.152C230.651 258.526 230.582 258.941 230.561 259.399C230.693 259.194 230.853 259.007 231.043 258.839C231.238 258.665 231.453 258.518 231.69 258.397C231.932 258.27 232.193 258.173 232.472 258.105C232.756 258.036 233.058 258.002 233.379 258.002C233.916 258.002 234.4 258.097 234.832 258.286C235.263 258.476 235.629 258.744 235.929 259.091C236.234 259.439 236.466 259.857 236.623 260.346C236.787 260.83 236.868 261.367 236.868 261.957C236.868 262.567 236.771 263.117 236.576 263.606C236.387 264.096 236.116 264.514 235.763 264.861C235.416 265.203 234.995 265.467 234.5 265.651C234.005 265.835 233.458 265.927 232.858 265.927C232.274 265.927 231.735 265.832 231.24 265.643C230.751 265.453 230.327 265.146 229.969 264.719C229.611 264.293 229.333 263.741 229.133 263.062C228.933 262.378 228.833 261.543 228.833 260.559C228.833 259.733 228.909 258.965 229.062 258.255C229.214 257.544 229.464 256.923 229.811 256.392C230.159 255.855 230.614 255.423 231.177 255.097C231.74 254.771 232.435 254.576 233.261 254.513L236.142 254.292L236.245 255.302C236.266 255.518 236.234 255.702 236.15 255.855C236.066 256.002 235.916 256.081 235.7 256.092L233.427 256.242ZM242.659 262.351C242.096 262.378 241.622 262.428 241.238 262.501C240.854 262.57 240.546 262.659 240.315 262.77C240.083 262.88 239.917 263.009 239.818 263.156C239.718 263.304 239.668 263.464 239.668 263.638C239.668 263.98 239.768 264.225 239.967 264.372C240.173 264.519 240.438 264.593 240.765 264.593C241.165 264.593 241.509 264.522 241.799 264.38C242.093 264.233 242.38 264.012 242.659 263.717V262.351ZM238.191 258.839C239.123 257.986 240.244 257.56 241.554 257.56C242.028 257.56 242.451 257.639 242.825 257.797C243.199 257.949 243.514 258.165 243.772 258.444C244.03 258.718 244.225 259.047 244.356 259.431C244.493 259.815 244.561 260.236 244.561 260.694V265.809H243.677C243.493 265.809 243.351 265.782 243.251 265.73C243.151 265.672 243.072 265.559 243.014 265.39L242.841 264.806C242.635 264.99 242.436 265.153 242.241 265.296C242.046 265.432 241.844 265.548 241.633 265.643C241.423 265.738 241.196 265.809 240.954 265.856C240.717 265.909 240.454 265.935 240.165 265.935C239.823 265.935 239.507 265.89 239.218 265.801C238.928 265.706 238.678 265.567 238.468 265.382C238.257 265.198 238.094 264.969 237.978 264.696C237.863 264.422 237.805 264.104 237.805 263.741C237.805 263.535 237.839 263.333 237.907 263.133C237.976 262.927 238.086 262.733 238.239 262.549C238.397 262.364 238.599 262.191 238.847 262.028C239.094 261.864 239.397 261.722 239.754 261.601C240.117 261.48 240.538 261.383 241.017 261.309C241.496 261.23 242.043 261.183 242.659 261.167V260.694C242.659 260.152 242.543 259.752 242.312 259.494C242.08 259.231 241.746 259.099 241.309 259.099C240.994 259.099 240.731 259.136 240.52 259.21C240.315 259.283 240.133 259.368 239.975 259.462C239.818 259.552 239.673 259.633 239.541 259.707C239.415 259.781 239.273 259.817 239.115 259.817C238.978 259.817 238.862 259.783 238.768 259.715C238.673 259.641 238.597 259.557 238.539 259.462L238.191 258.839ZM253.205 259.154H250.316V265.809H248.367V259.154H245.485V257.71H253.205V259.154ZM261.631 257.71V265.809H259.681V261.08C259.681 260.959 259.686 260.828 259.697 260.686C259.712 260.538 259.731 260.391 259.752 260.244C259.647 260.486 259.531 260.699 259.405 260.883C259.394 260.894 259.342 260.967 259.247 261.104C259.152 261.236 259.028 261.407 258.876 261.617C258.728 261.828 258.56 262.067 258.371 262.335C258.181 262.599 257.989 262.867 257.794 263.141C257.337 263.788 256.818 264.519 256.239 265.335C256.166 265.445 256.068 265.553 255.947 265.659C255.832 265.764 255.697 265.816 255.545 265.816H254.353V257.718H256.303V262.446C256.303 262.567 256.295 262.701 256.279 262.849C256.268 262.991 256.253 263.135 256.231 263.283C256.347 263.025 256.463 262.812 256.579 262.643C256.584 262.633 256.634 262.562 256.729 262.43C256.823 262.299 256.945 262.128 257.092 261.917C257.244 261.707 257.415 261.47 257.605 261.207C257.794 260.938 257.986 260.665 258.181 260.386C258.639 259.739 259.16 259.007 259.744 258.191C259.818 258.076 259.915 257.968 260.036 257.868C260.157 257.763 260.294 257.71 260.447 257.71H261.631Z" fill="white"/>
</g>
</g>
<defs>
<filter id="filter0_d_1198_4366" x="0.250004" y="0.250004" width="451.5" height="427.5" filterUnits="userSpaceOnUse" color-interpolation-filters="sRGB">
<feFlood flood-opacity="0" result="BackgroundImageFix"/>
<feColorMatrix in="SourceAlpha" type="matrix" values="0 0 0 0 0 0 0 0 0 0 0 0 0 0 0 0 0 0 127 0" result="hardAlpha"/>
<feOffset dy="3"/>
<feGaussianBlur stdDeviation="16.875"/>
<feComposite in2="hardAlpha" operator="out"/>
<feColorMatrix type="matrix" values="0 0 0 0 0.811667 0 0 0 0 0.811667 0 0 0 0 0.811667 0 0 0 0.25 0"/>
<feBlend mode="normal" in2="BackgroundImageFix" result="effect1_dropShadow_1198_4366"/>
<feBlend mode="normal" in="SourceGraphic" in2="effect1_dropShadow_1198_4366" result="shape"/>
</filter>
<filter id="filter1_d_1198_4366" x="46.2563" y="42.7668" width="359.487" height="313.997" filterUnits="userSpaceOnUse" color-interpolation-filters="sRGB">
<feFlood flood-opacity="0" result="BackgroundImageFix"/>
<feColorMatrix in="SourceAlpha" type="matrix" values="0 0 0 0 0 0 0 0 0 0 0 0 0 0 0 0 0 0 127 0" result="hardAlpha"/>
<feOffset dy="4.51055"/>
<feGaussianBlur stdDeviation="25.3719"/>
<feComposite in2="hardAlpha" operator="out"/>
<feColorMatrix type="matrix" values="0 0 0 0 0.811667 0 0 0 0 0.811667 0 0 0 0 0.811667 0 0 0 0.25 0"/>
<feBlend mode="normal" in2="BackgroundImageFix" result="effect1_dropShadow_1198_4366"/>
<feBlend mode="normal" in="SourceGraphic" in2="effect1_dropShadow_1198_4366" result="shape"/>
</filter>
<linearGradient id="paint0_linear_1198_4366" x1="323.173" y1="285.331" x2="173.253" y2="190.134" gradientUnits="userSpaceOnUse">
<stop stop-color="#369FAE"/>
<stop offset="0.9886" stop-color="#6BE4CA"/>
<stop offset="0.9924" stop-color="#6BE4CA"/>
</linearGradient>
<clipPath id="clip0_1198_4366">
<rect width="203.873" height="101.17" fill="white" transform="translate(124.063 112.681)"/>
</clipPath>
</defs>
</svg>
