<svg width="375" height="330" viewBox="0 0 375 330" fill="none" xmlns="http://www.w3.org/2000/svg">
<g filter="url(#filter0_d_1198_8819)">
<g clip-path="url(#clip0_1198_8819)">
<rect x="12" y="31" width="351" height="262" rx="9" fill="white"/>
<path d="M38.41 256H36.58C36.39 256 36.23 255.95 36.1 255.85C35.975 255.75 35.8575 255.603 35.7475 255.408L33.4375 251.763C33.3775 251.658 33.3125 251.573 33.2425 251.508C33.1775 251.438 33.105 251.382 33.025 251.342C32.95 251.297 32.8625 251.267 32.7625 251.253C32.6675 251.238 32.5575 251.23 32.4325 251.23H31.225V256H29.2075V245.155H31.225V249.7H32.245C32.45 249.7 32.6275 249.665 32.7775 249.595C32.9275 249.525 33.0675 249.395 33.1975 249.205L35.575 245.695C35.675 245.535 35.7925 245.405 35.9275 245.305C36.0625 245.205 36.225 245.155 36.415 245.155H38.14L35.1925 249.505C35.0675 249.695 34.9225 249.852 34.7575 249.978C34.5925 250.103 34.41 250.2 34.21 250.27C34.51 250.355 34.7625 250.49 34.9675 250.675C35.1775 250.855 35.3775 251.105 35.5675 251.425L38.41 256ZM45.529 248.305L41.3365 258.115C41.2815 258.245 41.209 258.343 41.119 258.407C41.034 258.477 40.9015 258.512 40.7215 258.512H39.3415L40.7815 255.422L37.669 248.305H39.2965C39.4415 248.305 39.554 248.34 39.634 248.41C39.719 248.48 39.7815 248.56 39.8215 248.65L41.4565 252.64C41.5115 252.775 41.5565 252.91 41.5915 253.045C41.6315 253.18 41.669 253.318 41.704 253.458C41.749 253.318 41.794 253.18 41.839 253.045C41.884 252.905 41.934 252.768 41.989 252.632L43.534 248.65C43.574 248.55 43.639 248.468 43.729 248.403C43.824 248.338 43.929 248.305 44.044 248.305H45.529ZM53.1542 256H51.3017V249.677H48.3017V256H46.4492V248.305H53.1542V256ZM61.9792 248.305L57.7867 258.115C57.7317 258.245 57.6592 258.343 57.5692 258.407C57.4842 258.477 57.3517 258.512 57.1717 258.512H55.7917L57.2317 255.422L54.1192 248.305H55.7467C55.8917 248.305 56.0042 248.34 56.0842 248.41C56.1692 248.48 56.2317 248.56 56.2717 248.65L57.9067 252.64C57.9617 252.775 58.0067 252.91 58.0417 253.045C58.0817 253.18 58.1192 253.318 58.1542 253.458C58.1992 253.318 58.2442 253.18 58.2892 253.045C58.3342 252.905 58.3842 252.768 58.4392 252.632L59.9842 248.65C60.0242 248.55 60.0892 248.468 60.1792 248.403C60.2742 248.338 60.3792 248.305 60.4942 248.305H61.9792ZM68.2 249.873C68.145 249.943 68.09 249.998 68.035 250.038C67.985 250.078 67.9125 250.097 67.8175 250.097C67.7225 250.097 67.6275 250.072 67.5325 250.023C67.4375 249.968 67.325 249.91 67.195 249.85C67.07 249.785 66.92 249.727 66.745 249.677C66.57 249.623 66.355 249.595 66.1 249.595C65.545 249.595 65.1025 249.758 64.7725 250.083C64.4425 250.408 64.2325 250.86 64.1425 251.44H67.39V252.7H64.12C64.205 253.35 64.42 253.848 64.765 254.193C65.11 254.533 65.54 254.703 66.055 254.703C66.25 254.703 66.42 254.688 66.565 254.658C66.715 254.623 66.845 254.583 66.955 254.538C67.065 254.493 67.1625 254.443 67.2475 254.388C67.3325 254.328 67.41 254.275 67.48 254.23C67.55 254.185 67.6175 254.148 67.6825 254.117C67.7475 254.082 67.82 254.065 67.9 254.065C68.045 254.065 68.1575 254.12 68.2375 254.23L68.74 254.852C68.535 255.093 68.3125 255.295 68.0725 255.46C67.8325 255.62 67.5825 255.75 67.3225 255.85C67.0675 255.945 66.8025 256.012 66.5275 256.052C66.2575 256.092 65.9875 256.112 65.7175 256.112C65.2425 256.112 64.795 256.025 64.375 255.85C63.955 255.67 63.5875 255.41 63.2725 255.07C62.9575 254.73 62.7075 254.315 62.5225 253.825C62.3425 253.33 62.2525 252.767 62.2525 252.137C62.2525 251.573 62.3325 251.05 62.4925 250.57C62.6575 250.085 62.8975 249.668 63.2125 249.318C63.5275 248.963 63.9175 248.685 64.3825 248.485C64.8475 248.285 65.3825 248.185 65.9875 248.185C66.5625 248.185 67.065 248.278 67.495 248.463C67.93 248.648 68.32 248.913 68.665 249.258L68.2 249.873ZM76.5746 249.677H73.8296V256H71.9771V249.677H69.2396V248.305H76.5746V249.677ZM82.4028 251.267C82.4028 251.028 82.3678 250.803 82.2978 250.593C82.2328 250.378 82.1328 250.19 81.9978 250.03C81.8628 249.87 81.6903 249.745 81.4803 249.655C81.2753 249.56 81.0353 249.512 80.7603 249.512C80.2253 249.512 79.8028 249.665 79.4928 249.97C79.1878 250.275 78.9928 250.708 78.9078 251.267H82.4028ZM78.8703 252.385C78.9003 252.78 78.9703 253.122 79.0803 253.412C79.1903 253.697 79.3353 253.935 79.5153 254.125C79.6953 254.31 79.9078 254.45 80.1528 254.545C80.4028 254.635 80.6778 254.68 80.9778 254.68C81.2778 254.68 81.5353 254.645 81.7503 254.575C81.9703 254.505 82.1603 254.428 82.3203 254.342C82.4853 254.258 82.6278 254.18 82.7478 254.11C82.8728 254.04 82.9928 254.005 83.1078 254.005C83.2628 254.005 83.3778 254.063 83.4528 254.177L83.9853 254.852C83.7803 255.093 83.5503 255.295 83.2953 255.46C83.0403 255.62 82.7728 255.75 82.4928 255.85C82.2178 255.945 81.9353 256.012 81.6453 256.052C81.3603 256.092 81.0828 256.112 80.8128 256.112C80.2778 256.112 79.7803 256.025 79.3203 255.85C78.8603 255.67 78.4603 255.408 78.1203 255.063C77.7803 254.713 77.5128 254.283 77.3178 253.772C77.1228 253.258 77.0253 252.663 77.0253 251.988C77.0253 251.462 77.1103 250.97 77.2803 250.51C77.4503 250.045 77.6928 249.643 78.0078 249.302C78.3278 248.957 78.7153 248.685 79.1703 248.485C79.6303 248.285 80.1478 248.185 80.7228 248.185C81.2078 248.185 81.6553 248.263 82.0653 248.418C82.4753 248.573 82.8278 248.8 83.1228 249.1C83.4178 249.395 83.6478 249.76 83.8128 250.195C83.9828 250.625 84.0678 251.118 84.0678 251.673C84.0678 251.953 84.0378 252.142 83.9778 252.242C83.9178 252.338 83.8028 252.385 83.6328 252.385H78.8703ZM95.1804 248.305V256H93.3279V252.977C92.6679 253.138 92.0554 253.23 91.4904 253.255C90.9254 253.275 90.4354 253.208 90.0204 253.053C89.6104 252.893 89.2879 252.635 89.0529 252.28C88.8229 251.925 88.7079 251.452 88.7079 250.862V248.305H90.5604V250.577C90.5604 250.893 90.6104 251.148 90.7104 251.342C90.8154 251.533 90.9779 251.67 91.1979 251.755C91.4229 251.84 91.7104 251.875 92.0604 251.86C92.4104 251.845 92.8329 251.788 93.3279 251.687V248.305H95.1804ZM101.973 251.267C101.973 251.028 101.938 250.803 101.868 250.593C101.803 250.378 101.703 250.19 101.568 250.03C101.433 249.87 101.261 249.745 101.051 249.655C100.846 249.56 100.606 249.512 100.331 249.512C99.7956 249.512 99.3731 249.665 99.0631 249.97C98.7581 250.275 98.5631 250.708 98.4781 251.267H101.973ZM98.4406 252.385C98.4706 252.78 98.5406 253.122 98.6506 253.412C98.7606 253.697 98.9056 253.935 99.0856 254.125C99.2656 254.31 99.4781 254.45 99.7231 254.545C99.9731 254.635 100.248 254.68 100.548 254.68C100.848 254.68 101.106 254.645 101.321 254.575C101.541 254.505 101.731 254.428 101.891 254.342C102.056 254.258 102.198 254.18 102.318 254.11C102.443 254.04 102.563 254.005 102.678 254.005C102.833 254.005 102.948 254.063 103.023 254.177L103.556 254.852C103.351 255.093 103.121 255.295 102.866 255.46C102.611 255.62 102.343 255.75 102.063 255.85C101.788 255.945 101.506 256.012 101.216 256.052C100.931 256.092 100.653 256.112 100.383 256.112C99.8481 256.112 99.3506 256.025 98.8906 255.85C98.4306 255.67 98.0306 255.408 97.6906 255.063C97.3506 254.713 97.0831 254.283 96.8881 253.772C96.6931 253.258 96.5956 252.663 96.5956 251.988C96.5956 251.462 96.6806 250.97 96.8506 250.51C97.0206 250.045 97.2631 249.643 97.5781 249.302C97.8981 248.957 98.2856 248.685 98.7406 248.485C99.2006 248.285 99.7181 248.185 100.293 248.185C100.778 248.185 101.226 248.263 101.636 248.418C102.046 248.573 102.398 248.8 102.693 249.1C102.988 249.395 103.218 249.76 103.383 250.195C103.553 250.625 103.638 251.118 103.638 251.673C103.638 251.953 103.608 252.142 103.548 252.242C103.488 252.338 103.373 252.385 103.203 252.385H98.4406ZM112.168 256H110.316V249.723H108.426C108.366 250.668 108.273 251.483 108.148 252.167C108.023 252.847 107.873 253.425 107.698 253.9C107.528 254.375 107.336 254.758 107.121 255.048C106.911 255.333 106.686 255.555 106.446 255.715C106.206 255.875 105.958 255.98 105.703 256.03C105.448 256.085 105.191 256.112 104.931 256.112C104.656 256.112 104.453 256.087 104.323 256.038C104.198 255.993 104.136 255.927 104.136 255.842V254.687H104.578C104.743 254.687 104.908 254.663 105.073 254.613C105.238 254.563 105.398 254.46 105.553 254.305C105.708 254.15 105.856 253.93 105.996 253.645C106.136 253.355 106.263 252.975 106.378 252.505C106.498 252.03 106.603 251.45 106.693 250.765C106.783 250.08 106.853 249.26 106.903 248.305H112.168V256ZM118.951 251.267C118.951 251.028 118.916 250.803 118.846 250.593C118.781 250.378 118.681 250.19 118.546 250.03C118.411 249.87 118.238 249.745 118.028 249.655C117.823 249.56 117.583 249.512 117.308 249.512C116.773 249.512 116.351 249.665 116.041 249.97C115.736 250.275 115.541 250.708 115.456 251.267H118.951ZM115.418 252.385C115.448 252.78 115.518 253.122 115.628 253.412C115.738 253.697 115.883 253.935 116.063 254.125C116.243 254.31 116.456 254.45 116.701 254.545C116.951 254.635 117.226 254.68 117.526 254.68C117.826 254.68 118.083 254.645 118.298 254.575C118.518 254.505 118.708 254.428 118.868 254.342C119.033 254.258 119.176 254.18 119.296 254.11C119.421 254.04 119.541 254.005 119.656 254.005C119.811 254.005 119.926 254.063 120.001 254.177L120.533 254.852C120.328 255.093 120.098 255.295 119.843 255.46C119.588 255.62 119.321 255.75 119.041 255.85C118.766 255.945 118.483 256.012 118.193 256.052C117.908 256.092 117.631 256.112 117.361 256.112C116.826 256.112 116.328 256.025 115.868 255.85C115.408 255.67 115.008 255.408 114.668 255.063C114.328 254.713 114.061 254.283 113.866 253.772C113.671 253.258 113.573 252.663 113.573 251.988C113.573 251.462 113.658 250.97 113.828 250.51C113.998 250.045 114.241 249.643 114.556 249.302C114.876 248.957 115.263 248.685 115.718 248.485C116.178 248.285 116.696 248.185 117.271 248.185C117.756 248.185 118.203 248.263 118.613 248.418C119.023 248.573 119.376 248.8 119.671 249.1C119.966 249.395 120.196 249.76 120.361 250.195C120.531 250.625 120.616 251.118 120.616 251.673C120.616 251.953 120.586 252.142 120.526 252.242C120.466 252.338 120.351 252.385 120.181 252.385H115.418ZM128.711 248.305V256H126.858V252.595H123.858V256H122.006V248.305H123.858V251.223H126.858V248.305H128.711ZM135.676 254.68V249.723H133.786C133.736 250.368 133.673 250.95 133.598 251.47C133.523 251.985 133.436 252.445 133.336 252.85C133.236 253.255 133.126 253.608 133.006 253.908C132.891 254.208 132.766 254.465 132.631 254.68H135.676ZM138.886 254.627V258.025C138.886 258.195 138.836 258.33 138.736 258.43C138.641 258.53 138.516 258.58 138.361 258.58H137.206V256H131.446V258.055C131.446 258.185 131.403 258.305 131.318 258.415C131.238 258.525 131.111 258.58 130.936 258.58H129.766V254.68H129.983C130.158 254.68 130.328 254.658 130.493 254.613C130.658 254.563 130.816 254.463 130.966 254.313C131.121 254.162 131.266 253.947 131.401 253.668C131.541 253.382 131.666 253.005 131.776 252.535C131.886 252.06 131.981 251.477 132.061 250.787C132.146 250.097 132.213 249.27 132.263 248.305H137.476V254.627H138.886ZM151.28 256H149.998C149.668 256 149.418 255.95 149.248 255.85C149.078 255.75 148.943 255.588 148.843 255.363L147.703 253.233C147.608 253.048 147.48 252.91 147.32 252.82C147.165 252.73 146.983 252.685 146.773 252.685H146.165V256H144.373V252.685H143.758C143.553 252.685 143.37 252.73 143.21 252.82C143.05 252.91 142.923 253.048 142.828 253.233L141.688 255.363C141.588 255.588 141.453 255.75 141.283 255.85C141.113 255.95 140.863 256 140.533 256H139.258L141.058 252.828C141.183 252.603 141.325 252.418 141.485 252.273C141.645 252.123 141.85 252.008 142.1 251.927C141.915 251.862 141.758 251.77 141.628 251.65C141.498 251.525 141.373 251.363 141.253 251.163L139.453 248.305H140.915C141.085 248.305 141.24 248.35 141.38 248.44C141.525 248.525 141.638 248.643 141.718 248.793L143.023 251.005C143.118 251.165 143.228 251.285 143.353 251.365C143.483 251.44 143.653 251.477 143.863 251.477H144.373V248.305H146.165V251.477H146.638C146.848 251.477 147.02 251.44 147.155 251.365C147.295 251.285 147.413 251.165 147.508 251.005L148.813 248.793C148.893 248.643 149.003 248.525 149.143 248.44C149.288 248.35 149.448 248.305 149.623 248.305H151.078L149.278 251.163C149.158 251.363 149.033 251.525 148.903 251.65C148.773 251.77 148.615 251.862 148.43 251.927C148.68 252.008 148.885 252.123 149.045 252.273C149.205 252.418 149.348 252.603 149.473 252.828L151.28 256ZM159.103 254.732C159.493 254.732 159.801 254.637 160.026 254.447C160.256 254.258 160.371 253.998 160.371 253.668C160.371 253.528 160.351 253.398 160.311 253.278C160.276 253.153 160.211 253.045 160.116 252.955C160.021 252.865 159.891 252.795 159.726 252.745C159.566 252.695 159.361 252.67 159.111 252.67H157.723V254.732H159.103ZM157.723 249.512V251.53H158.938C159.118 251.53 159.283 251.505 159.433 251.455C159.583 251.4 159.713 251.325 159.823 251.23C159.933 251.13 160.018 251.015 160.078 250.885C160.138 250.75 160.168 250.602 160.168 250.442C160.168 250.327 160.148 250.215 160.108 250.105C160.068 249.99 160.001 249.89 159.906 249.805C159.811 249.715 159.683 249.645 159.523 249.595C159.368 249.54 159.173 249.512 158.938 249.512H157.723ZM158.991 248.305C159.476 248.305 159.893 248.353 160.243 248.447C160.598 248.543 160.891 248.673 161.121 248.838C161.351 249.003 161.521 249.2 161.631 249.43C161.741 249.655 161.796 249.9 161.796 250.165C161.796 250.33 161.773 250.502 161.728 250.682C161.688 250.858 161.613 251.028 161.503 251.193C161.398 251.358 161.253 251.508 161.068 251.643C160.883 251.778 160.648 251.883 160.363 251.957C160.618 252.013 160.851 252.09 161.061 252.19C161.271 252.285 161.451 252.408 161.601 252.558C161.751 252.703 161.866 252.875 161.946 253.075C162.031 253.27 162.073 253.49 162.073 253.735C162.073 254.125 161.991 254.463 161.826 254.748C161.666 255.033 161.448 255.267 161.173 255.452C160.903 255.637 160.588 255.775 160.228 255.865C159.873 255.955 159.501 256 159.111 256H155.961V248.305H158.991ZM170.557 248.185C171.127 248.185 171.645 248.278 172.11 248.463C172.58 248.648 172.98 248.91 173.31 249.25C173.645 249.59 173.902 250.005 174.082 250.495C174.262 250.985 174.352 251.532 174.352 252.137C174.352 252.748 174.262 253.298 174.082 253.788C173.902 254.278 173.645 254.695 173.31 255.04C172.98 255.385 172.58 255.65 172.11 255.835C171.645 256.02 171.127 256.112 170.557 256.112C169.982 256.112 169.46 256.02 168.99 255.835C168.52 255.65 168.117 255.385 167.782 255.04C167.452 254.695 167.195 254.278 167.01 253.788C166.83 253.298 166.74 252.748 166.74 252.137C166.74 251.532 166.83 250.985 167.01 250.495C167.195 250.005 167.452 249.59 167.782 249.25C168.117 248.91 168.52 248.648 168.99 248.463C169.46 248.278 169.982 248.185 170.557 248.185ZM170.557 254.687C171.197 254.687 171.67 254.473 171.975 254.043C172.285 253.613 172.44 252.983 172.44 252.153C172.44 251.323 172.285 250.69 171.975 250.255C171.67 249.82 171.197 249.603 170.557 249.603C169.907 249.603 169.425 249.823 169.11 250.263C168.8 250.698 168.645 251.328 168.645 252.153C168.645 252.978 168.8 253.608 169.11 254.043C169.425 254.473 169.907 254.687 170.557 254.687ZM180.676 254.68V249.723H178.786C178.736 250.368 178.673 250.95 178.598 251.47C178.523 251.985 178.436 252.445 178.336 252.85C178.236 253.255 178.126 253.608 178.006 253.908C177.891 254.208 177.766 254.465 177.631 254.68H180.676ZM183.886 254.627V258.025C183.886 258.195 183.836 258.33 183.736 258.43C183.641 258.53 183.516 258.58 183.361 258.58H182.206V256H176.446V258.055C176.446 258.185 176.403 258.305 176.318 258.415C176.238 258.525 176.111 258.58 175.936 258.58H174.766V254.68H174.983C175.158 254.68 175.328 254.658 175.493 254.613C175.658 254.563 175.816 254.463 175.966 254.313C176.121 254.162 176.266 253.947 176.401 253.668C176.541 253.382 176.666 253.005 176.776 252.535C176.886 252.06 176.981 251.477 177.061 250.787C177.146 250.097 177.213 249.27 177.263 248.305H182.476V254.627H183.886ZM191.758 248.305V256H189.905V252.595H186.905V256H185.053V248.305H186.905V251.223H189.905V248.305H191.758ZM195.513 248.305V256H193.653V248.305H195.513ZM195.768 246.063C195.768 246.222 195.735 246.372 195.67 246.512C195.605 246.652 195.518 246.775 195.408 246.88C195.303 246.985 195.178 247.07 195.033 247.135C194.888 247.195 194.733 247.225 194.568 247.225C194.408 247.225 194.255 247.195 194.11 247.135C193.97 247.07 193.848 246.985 193.743 246.88C193.638 246.775 193.553 246.652 193.488 246.512C193.428 246.372 193.398 246.222 193.398 246.063C193.398 245.898 193.428 245.743 193.488 245.598C193.553 245.453 193.638 245.328 193.743 245.223C193.848 245.118 193.97 245.035 194.11 244.975C194.255 244.91 194.408 244.878 194.568 244.878C194.733 244.878 194.888 244.91 195.033 244.975C195.178 245.035 195.303 245.118 195.408 245.223C195.518 245.328 195.605 245.453 195.67 245.598C195.735 245.743 195.768 245.898 195.768 246.063ZM204.316 248.305V256H202.464V251.508C202.464 251.393 202.469 251.267 202.479 251.132C202.494 250.992 202.511 250.852 202.531 250.713C202.431 250.943 202.321 251.145 202.201 251.32C202.191 251.33 202.141 251.4 202.051 251.53C201.961 251.655 201.844 251.818 201.699 252.018C201.559 252.218 201.399 252.445 201.219 252.7C201.039 252.95 200.856 253.205 200.671 253.465C200.236 254.08 199.744 254.775 199.194 255.55C199.124 255.655 199.031 255.758 198.916 255.857C198.806 255.957 198.679 256.007 198.534 256.007H197.401V248.312H199.254V252.805C199.254 252.92 199.246 253.047 199.231 253.187C199.221 253.322 199.206 253.46 199.186 253.6C199.296 253.355 199.406 253.153 199.516 252.993C199.521 252.982 199.569 252.915 199.659 252.79C199.749 252.665 199.864 252.503 200.004 252.303C200.149 252.102 200.311 251.877 200.491 251.628C200.671 251.373 200.854 251.113 201.039 250.848C201.474 250.232 201.969 249.538 202.524 248.763C202.594 248.653 202.686 248.55 202.801 248.455C202.916 248.355 203.046 248.305 203.191 248.305H204.316ZM200.964 246.355C201.149 246.355 201.304 246.335 201.429 246.295C201.554 246.255 201.654 246.19 201.729 246.1C201.804 246.005 201.856 245.88 201.886 245.725C201.916 245.57 201.931 245.38 201.931 245.155H203.026C203.156 245.155 203.251 245.21 203.311 245.32C203.376 245.425 203.409 245.542 203.409 245.672C203.409 245.927 203.351 246.16 203.236 246.37C203.121 246.575 202.956 246.75 202.741 246.895C202.526 247.035 202.269 247.145 201.969 247.225C201.669 247.3 201.334 247.337 200.964 247.337C200.594 247.337 200.259 247.3 199.959 247.225C199.659 247.145 199.401 247.035 199.186 246.895C198.971 246.75 198.806 246.575 198.691 246.37C198.576 246.16 198.519 245.927 198.519 245.672C198.519 245.542 198.549 245.425 198.609 245.32C198.674 245.21 198.771 245.155 198.901 245.155H199.996C199.996 245.38 200.011 245.57 200.041 245.725C200.071 245.88 200.124 246.005 200.199 246.1C200.274 246.19 200.371 246.255 200.491 246.295C200.616 246.335 200.774 246.355 200.964 246.355ZM211.714 248.305V256H209.854V248.305H211.714ZM211.969 246.063C211.969 246.222 211.936 246.372 211.871 246.512C211.806 246.652 211.719 246.775 211.609 246.88C211.504 246.985 211.379 247.07 211.234 247.135C211.089 247.195 210.934 247.225 210.769 247.225C210.609 247.225 210.456 247.195 210.311 247.135C210.171 247.07 210.049 246.985 209.944 246.88C209.839 246.775 209.754 246.652 209.689 246.512C209.629 246.372 209.599 246.222 209.599 246.063C209.599 245.898 209.629 245.743 209.689 245.598C209.754 245.453 209.839 245.328 209.944 245.223C210.049 245.118 210.171 245.035 210.311 244.975C210.456 244.91 210.609 244.878 210.769 244.878C210.934 244.878 211.089 244.91 211.234 244.975C211.379 245.035 211.504 245.118 211.609 245.223C211.719 245.328 211.806 245.453 211.871 245.598C211.936 245.743 211.969 245.898 211.969 246.063ZM213.152 249.138C213.442 248.858 213.802 248.63 214.232 248.455C214.662 248.275 215.177 248.185 215.777 248.185C216.252 248.185 216.675 248.243 217.045 248.358C217.415 248.468 217.725 248.62 217.975 248.815C218.23 249.005 218.422 249.225 218.552 249.475C218.687 249.72 218.755 249.978 218.755 250.248C218.755 250.393 218.732 250.545 218.687 250.705C218.647 250.86 218.577 251.013 218.477 251.163C218.382 251.313 218.255 251.453 218.095 251.582C217.935 251.708 217.737 251.815 217.502 251.905C217.922 252.065 218.26 252.3 218.515 252.61C218.775 252.92 218.905 253.303 218.905 253.757C218.905 254.133 218.817 254.465 218.642 254.755C218.472 255.045 218.245 255.293 217.96 255.498C217.675 255.698 217.347 255.85 216.977 255.955C216.612 256.06 216.235 256.112 215.845 256.112C215.625 256.112 215.387 256.092 215.132 256.052C214.882 256.012 214.63 255.945 214.375 255.85C214.12 255.75 213.87 255.62 213.625 255.46C213.38 255.295 213.157 255.093 212.957 254.852L213.49 254.177C213.565 254.063 213.677 254.005 213.827 254.005C213.942 254.005 214.052 254.043 214.157 254.117C214.262 254.187 214.382 254.267 214.517 254.358C214.657 254.443 214.822 254.523 215.012 254.598C215.202 254.668 215.44 254.703 215.725 254.703C216.19 254.703 216.542 254.598 216.782 254.388C217.022 254.178 217.142 253.915 217.142 253.6C217.142 253.29 217.017 253.047 216.767 252.873C216.522 252.698 216.122 252.61 215.567 252.61H214.697V251.403H215.567C216.052 251.403 216.425 251.318 216.685 251.148C216.945 250.978 217.075 250.752 217.075 250.472C217.075 250.218 216.96 250.008 216.73 249.843C216.505 249.678 216.17 249.595 215.725 249.595C215.46 249.595 215.235 249.623 215.05 249.677C214.865 249.733 214.705 249.793 214.57 249.857C214.44 249.918 214.33 249.975 214.24 250.03C214.15 250.085 214.065 250.113 213.985 250.113C213.9 250.113 213.827 250.098 213.767 250.068C213.707 250.033 213.642 249.96 213.572 249.85L213.152 249.138ZM223.553 249.138C223.843 248.858 224.203 248.63 224.633 248.455C225.063 248.275 225.578 248.185 226.178 248.185C226.653 248.185 227.075 248.243 227.445 248.358C227.815 248.468 228.125 248.62 228.375 248.815C228.63 249.005 228.823 249.225 228.953 249.475C229.088 249.72 229.155 249.978 229.155 250.248C229.155 250.393 229.133 250.545 229.088 250.705C229.048 250.86 228.978 251.013 228.878 251.163C228.783 251.313 228.655 251.453 228.495 251.582C228.335 251.708 228.138 251.815 227.903 251.905C228.323 252.065 228.66 252.3 228.915 252.61C229.175 252.92 229.305 253.303 229.305 253.757C229.305 254.133 229.218 254.465 229.043 254.755C228.873 255.045 228.645 255.293 228.36 255.498C228.075 255.698 227.748 255.85 227.378 255.955C227.013 256.06 226.635 256.112 226.245 256.112C226.025 256.112 225.788 256.092 225.533 256.052C225.283 256.012 225.03 255.945 224.775 255.85C224.52 255.75 224.27 255.62 224.025 255.46C223.78 255.295 223.558 255.093 223.358 254.852L223.89 254.177C223.965 254.063 224.078 254.005 224.228 254.005C224.343 254.005 224.453 254.043 224.558 254.117C224.663 254.187 224.783 254.267 224.918 254.358C225.058 254.443 225.223 254.523 225.413 254.598C225.603 254.668 225.84 254.703 226.125 254.703C226.59 254.703 226.943 254.598 227.183 254.388C227.423 254.178 227.543 253.915 227.543 253.6C227.543 253.29 227.418 253.047 227.168 252.873C226.923 252.698 226.523 252.61 225.968 252.61H225.098V251.403H225.968C226.453 251.403 226.825 251.318 227.085 251.148C227.345 250.978 227.475 250.752 227.475 250.472C227.475 250.218 227.36 250.008 227.13 249.843C226.905 249.678 226.57 249.595 226.125 249.595C225.86 249.595 225.635 249.623 225.45 249.677C225.265 249.733 225.105 249.793 224.97 249.857C224.84 249.918 224.73 249.975 224.64 250.03C224.55 250.085 224.465 250.113 224.385 250.113C224.3 250.113 224.228 250.098 224.168 250.068C224.108 250.033 224.043 249.96 223.973 249.85L223.553 249.138ZM234.821 252.715C234.286 252.74 233.836 252.787 233.471 252.857C233.106 252.923 232.813 253.008 232.593 253.113C232.373 253.218 232.216 253.34 232.121 253.48C232.026 253.62 231.978 253.772 231.978 253.938C231.978 254.263 232.073 254.495 232.263 254.635C232.458 254.775 232.711 254.845 233.021 254.845C233.401 254.845 233.728 254.777 234.003 254.643C234.283 254.503 234.556 254.293 234.821 254.013V252.715ZM230.576 249.378C231.461 248.568 232.526 248.162 233.771 248.162C234.221 248.162 234.623 248.237 234.978 248.387C235.333 248.532 235.633 248.738 235.878 249.003C236.123 249.263 236.308 249.575 236.433 249.94C236.563 250.305 236.628 250.705 236.628 251.14V256H235.788C235.613 256 235.478 255.975 235.383 255.925C235.288 255.87 235.213 255.762 235.158 255.603L234.993 255.048C234.798 255.223 234.608 255.377 234.423 255.512C234.238 255.643 234.046 255.753 233.846 255.842C233.646 255.933 233.431 256 233.201 256.045C232.976 256.095 232.726 256.12 232.451 256.12C232.126 256.12 231.826 256.077 231.551 255.993C231.276 255.902 231.038 255.77 230.838 255.595C230.638 255.42 230.483 255.203 230.373 254.943C230.263 254.683 230.208 254.38 230.208 254.035C230.208 253.84 230.241 253.647 230.306 253.458C230.371 253.263 230.476 253.078 230.621 252.903C230.771 252.728 230.963 252.563 231.198 252.407C231.433 252.252 231.721 252.117 232.061 252.002C232.406 251.887 232.806 251.795 233.261 251.725C233.716 251.65 234.236 251.605 234.821 251.59V251.14C234.821 250.625 234.711 250.245 234.491 250C234.271 249.75 233.953 249.625 233.538 249.625C233.238 249.625 232.988 249.66 232.788 249.73C232.593 249.8 232.421 249.88 232.271 249.97C232.121 250.055 231.983 250.132 231.858 250.202C231.738 250.272 231.603 250.307 231.453 250.307C231.323 250.307 231.213 250.275 231.123 250.21C231.033 250.14 230.961 250.06 230.906 249.97L230.576 249.378ZM245.078 256H243.225V249.677H240.225V256H238.373V248.305H245.078V256ZM248.766 254.005C248.976 254.26 249.203 254.44 249.448 254.545C249.698 254.65 249.968 254.703 250.258 254.703C250.538 254.703 250.791 254.65 251.016 254.545C251.241 254.44 251.431 254.28 251.586 254.065C251.746 253.85 251.868 253.58 251.953 253.255C252.038 252.925 252.081 252.538 252.081 252.093C252.081 251.643 252.043 251.263 251.968 250.953C251.898 250.637 251.796 250.382 251.661 250.188C251.526 249.993 251.361 249.85 251.166 249.76C250.976 249.67 250.758 249.625 250.513 249.625C250.128 249.625 249.801 249.708 249.531 249.873C249.261 250.033 249.006 250.26 248.766 250.555V254.005ZM248.668 249.355C248.983 249 249.341 248.713 249.741 248.493C250.141 248.272 250.611 248.162 251.151 248.162C251.571 248.162 251.953 248.25 252.298 248.425C252.648 248.6 252.948 248.855 253.198 249.19C253.453 249.52 253.648 249.93 253.783 250.42C253.923 250.905 253.993 251.463 253.993 252.093C253.993 252.668 253.916 253.2 253.761 253.69C253.606 254.18 253.383 254.605 253.093 254.965C252.808 255.325 252.461 255.608 252.051 255.813C251.646 256.013 251.191 256.112 250.686 256.112C250.256 256.112 249.888 256.047 249.583 255.917C249.278 255.782 249.006 255.598 248.766 255.363V258.512H246.913V248.305H248.046C248.286 248.305 248.443 248.418 248.518 248.642L248.668 249.355ZM258.829 248.185C259.399 248.185 259.916 248.278 260.381 248.463C260.851 248.648 261.251 248.91 261.581 249.25C261.916 249.59 262.174 250.005 262.354 250.495C262.534 250.985 262.624 251.532 262.624 252.137C262.624 252.748 262.534 253.298 262.354 253.788C262.174 254.278 261.916 254.695 261.581 255.04C261.251 255.385 260.851 255.65 260.381 255.835C259.916 256.02 259.399 256.112 258.829 256.112C258.254 256.112 257.731 256.02 257.261 255.835C256.791 255.65 256.389 255.385 256.054 255.04C255.724 254.695 255.466 254.278 255.281 253.788C255.101 253.298 255.011 252.748 255.011 252.137C255.011 251.532 255.101 250.985 255.281 250.495C255.466 250.005 255.724 249.59 256.054 249.25C256.389 248.91 256.791 248.648 257.261 248.463C257.731 248.278 258.254 248.185 258.829 248.185ZM258.829 254.687C259.469 254.687 259.941 254.473 260.246 254.043C260.556 253.613 260.711 252.983 260.711 252.153C260.711 251.323 260.556 250.69 260.246 250.255C259.941 249.82 259.469 249.603 258.829 249.603C258.179 249.603 257.696 249.823 257.381 250.263C257.071 250.698 256.916 251.328 256.916 252.153C256.916 252.978 257.071 253.608 257.381 254.043C257.696 254.473 258.179 254.687 258.829 254.687ZM270.742 256H268.89V249.677H265.89V256H264.037V248.305H270.742V256ZM275.982 248.185C276.552 248.185 277.07 248.278 277.535 248.463C278.005 248.648 278.405 248.91 278.735 249.25C279.07 249.59 279.327 250.005 279.507 250.495C279.687 250.985 279.777 251.532 279.777 252.137C279.777 252.748 279.687 253.298 279.507 253.788C279.327 254.278 279.07 254.695 278.735 255.04C278.405 255.385 278.005 255.65 277.535 255.835C277.07 256.02 276.552 256.112 275.982 256.112C275.407 256.112 274.885 256.02 274.415 255.835C273.945 255.65 273.542 255.385 273.207 255.04C272.877 254.695 272.62 254.278 272.435 253.788C272.255 253.298 272.165 252.748 272.165 252.137C272.165 251.532 272.255 250.985 272.435 250.495C272.62 250.005 272.877 249.59 273.207 249.25C273.542 248.91 273.945 248.648 274.415 248.463C274.885 248.278 275.407 248.185 275.982 248.185ZM275.982 254.687C276.622 254.687 277.095 254.473 277.4 254.043C277.71 253.613 277.865 252.983 277.865 252.153C277.865 251.323 277.71 250.69 277.4 250.255C277.095 249.82 276.622 249.603 275.982 249.603C275.332 249.603 274.85 249.823 274.535 250.263C274.225 250.698 274.07 251.328 274.07 252.153C274.07 252.978 274.225 253.608 274.535 254.043C274.85 254.473 275.332 254.687 275.982 254.687ZM287.895 248.305V256H286.043V252.595H283.043V256H281.19V248.305H283.043V251.223H286.043V248.305H287.895ZM293.135 248.185C293.705 248.185 294.223 248.278 294.688 248.463C295.158 248.648 295.558 248.91 295.888 249.25C296.223 249.59 296.48 250.005 296.66 250.495C296.84 250.985 296.93 251.532 296.93 252.137C296.93 252.748 296.84 253.298 296.66 253.788C296.48 254.278 296.223 254.695 295.888 255.04C295.558 255.385 295.158 255.65 294.688 255.835C294.223 256.02 293.705 256.112 293.135 256.112C292.56 256.112 292.038 256.02 291.568 255.835C291.098 255.65 290.695 255.385 290.36 255.04C290.03 254.695 289.773 254.278 289.588 253.788C289.408 253.298 289.318 252.748 289.318 252.137C289.318 251.532 289.408 250.985 289.588 250.495C289.773 250.005 290.03 249.59 290.36 249.25C290.695 248.91 291.098 248.648 291.568 248.463C292.038 248.278 292.56 248.185 293.135 248.185ZM293.135 254.687C293.775 254.687 294.248 254.473 294.553 254.043C294.863 253.613 295.018 252.983 295.018 252.153C295.018 251.323 294.863 250.69 294.553 250.255C294.248 249.82 293.775 249.603 293.135 249.603C292.485 249.603 292.003 249.823 291.688 250.263C291.378 250.698 291.223 251.328 291.223 252.153C291.223 252.978 291.378 253.608 291.688 254.043C292.003 254.473 292.485 254.687 293.135 254.687ZM301.486 254.732C301.876 254.732 302.184 254.637 302.409 254.447C302.639 254.258 302.754 253.998 302.754 253.668C302.754 253.528 302.734 253.398 302.694 253.278C302.659 253.153 302.594 253.045 302.499 252.955C302.404 252.865 302.274 252.795 302.109 252.745C301.949 252.695 301.744 252.67 301.494 252.67H300.106V254.732H301.486ZM300.106 249.512V251.53H301.321C301.501 251.53 301.666 251.505 301.816 251.455C301.966 251.4 302.096 251.325 302.206 251.23C302.316 251.13 302.401 251.015 302.461 250.885C302.521 250.75 302.551 250.602 302.551 250.442C302.551 250.327 302.531 250.215 302.491 250.105C302.451 249.99 302.384 249.89 302.289 249.805C302.194 249.715 302.066 249.645 301.906 249.595C301.751 249.54 301.556 249.512 301.321 249.512H300.106ZM301.374 248.305C301.859 248.305 302.276 248.353 302.626 248.447C302.981 248.543 303.274 248.673 303.504 248.838C303.734 249.003 303.904 249.2 304.014 249.43C304.124 249.655 304.179 249.9 304.179 250.165C304.179 250.33 304.156 250.502 304.111 250.682C304.071 250.858 303.996 251.028 303.886 251.193C303.781 251.358 303.636 251.508 303.451 251.643C303.266 251.778 303.031 251.883 302.746 251.957C303.001 252.013 303.234 252.09 303.444 252.19C303.654 252.285 303.834 252.408 303.984 252.558C304.134 252.703 304.249 252.875 304.329 253.075C304.414 253.27 304.456 253.49 304.456 253.735C304.456 254.125 304.374 254.463 304.209 254.748C304.049 255.033 303.831 255.267 303.556 255.452C303.286 255.637 302.971 255.775 302.611 255.865C302.256 255.955 301.884 256 301.494 256H298.344V248.305H301.374ZM309.953 252.715C309.418 252.74 308.968 252.787 308.603 252.857C308.238 252.923 307.945 253.008 307.725 253.113C307.505 253.218 307.348 253.34 307.253 253.48C307.158 253.62 307.11 253.772 307.11 253.938C307.11 254.263 307.205 254.495 307.395 254.635C307.59 254.775 307.843 254.845 308.153 254.845C308.533 254.845 308.86 254.777 309.135 254.643C309.415 254.503 309.688 254.293 309.953 254.013V252.715ZM305.708 249.378C306.593 248.568 307.658 248.162 308.903 248.162C309.353 248.162 309.755 248.237 310.11 248.387C310.465 248.532 310.765 248.738 311.01 249.003C311.255 249.263 311.44 249.575 311.565 249.94C311.695 250.305 311.76 250.705 311.76 251.14V256H310.92C310.745 256 310.61 255.975 310.515 255.925C310.42 255.87 310.345 255.762 310.29 255.603L310.125 255.048C309.93 255.223 309.74 255.377 309.555 255.512C309.37 255.643 309.178 255.753 308.978 255.842C308.778 255.933 308.563 256 308.333 256.045C308.108 256.095 307.858 256.12 307.583 256.12C307.258 256.12 306.958 256.077 306.683 255.993C306.408 255.902 306.17 255.77 305.97 255.595C305.77 255.42 305.615 255.203 305.505 254.943C305.395 254.683 305.34 254.38 305.34 254.035C305.34 253.84 305.373 253.647 305.438 253.458C305.503 253.263 305.608 253.078 305.753 252.903C305.903 252.728 306.095 252.563 306.33 252.407C306.565 252.252 306.853 252.117 307.193 252.002C307.538 251.887 307.938 251.795 308.393 251.725C308.848 251.65 309.368 251.605 309.953 251.59V251.14C309.953 250.625 309.843 250.245 309.623 250C309.403 249.75 309.085 249.625 308.67 249.625C308.37 249.625 308.12 249.66 307.92 249.73C307.725 249.8 307.553 249.88 307.403 249.97C307.253 250.055 307.115 250.132 306.99 250.202C306.87 250.272 306.735 250.307 306.585 250.307C306.455 250.307 306.345 250.275 306.255 250.21C306.165 250.14 306.093 250.06 306.038 249.97L305.708 249.378ZM320.21 248.305V256H318.357V252.595H315.357V256H313.505V248.305H315.357V251.223H318.357V248.305H320.21ZM328.96 248.305V256H327.107V251.508C327.107 251.393 327.112 251.267 327.122 251.132C327.137 250.992 327.155 250.852 327.175 250.713C327.075 250.943 326.965 251.145 326.845 251.32C326.835 251.33 326.785 251.4 326.695 251.53C326.605 251.655 326.487 251.818 326.342 252.018C326.202 252.218 326.042 252.445 325.862 252.7C325.682 252.95 325.5 253.205 325.315 253.465C324.88 254.08 324.387 254.775 323.837 255.55C323.767 255.655 323.675 255.758 323.56 255.857C323.45 255.957 323.322 256.007 323.177 256.007H322.045V248.312H323.897V252.805C323.897 252.92 323.89 253.047 323.875 253.187C323.865 253.322 323.85 253.46 323.83 253.6C323.94 253.355 324.05 253.153 324.16 252.993C324.165 252.982 324.212 252.915 324.302 252.79C324.392 252.665 324.507 252.503 324.647 252.303C324.792 252.102 324.955 251.877 325.135 251.628C325.315 251.373 325.497 251.113 325.682 250.848C326.117 250.232 326.612 249.538 327.167 248.763C327.237 248.653 327.33 248.55 327.445 248.455C327.56 248.355 327.69 248.305 327.835 248.305H328.96ZM337.66 256H335.875C335.74 256 335.63 255.965 335.545 255.895C335.465 255.825 335.397 255.745 335.342 255.655L333.715 252.977C333.69 253.063 333.66 253.143 333.625 253.218C333.595 253.293 333.56 253.363 333.52 253.427L332.08 255.655C332.025 255.74 331.957 255.82 331.877 255.895C331.797 255.965 331.697 256 331.577 256H329.92L332.56 252.032L330.025 248.305H331.81C331.945 248.305 332.045 248.325 332.11 248.365C332.175 248.4 332.232 248.46 332.282 248.545L333.895 251.11C333.95 250.94 334.027 250.772 334.127 250.608L335.425 248.583C335.535 248.398 335.677 248.305 335.852 248.305H337.555L335.027 251.95L337.66 256ZM35.62 274H33.7675V267.677H30.7675V274H28.915V266.305H35.62V274ZM39.3075 272.005C39.5175 272.26 39.745 272.44 39.99 272.545C40.24 272.65 40.51 272.703 40.8 272.703C41.08 272.703 41.3325 272.65 41.5575 272.545C41.7825 272.44 41.9725 272.28 42.1275 272.065C42.2875 271.85 42.41 271.58 42.495 271.255C42.58 270.925 42.6225 270.538 42.6225 270.093C42.6225 269.643 42.585 269.263 42.51 268.953C42.44 268.637 42.3375 268.382 42.2025 268.188C42.0675 267.993 41.9025 267.85 41.7075 267.76C41.5175 267.67 41.3 267.625 41.055 267.625C40.67 267.625 40.3425 267.708 40.0725 267.873C39.8025 268.033 39.5475 268.26 39.3075 268.555V272.005ZM39.21 267.355C39.525 267 39.8825 266.713 40.2825 266.493C40.6825 266.272 41.1525 266.162 41.6925 266.162C42.1125 266.162 42.495 266.25 42.84 266.425C43.19 266.6 43.49 266.855 43.74 267.19C43.995 267.52 44.19 267.93 44.325 268.42C44.465 268.905 44.535 269.463 44.535 270.093C44.535 270.668 44.4575 271.2 44.3025 271.69C44.1475 272.18 43.925 272.605 43.635 272.965C43.35 273.325 43.0025 273.608 42.5925 273.813C42.1875 274.013 41.7325 274.112 41.2275 274.112C40.7975 274.112 40.43 274.047 40.125 273.917C39.82 273.782 39.5475 273.598 39.3075 273.363V276.512H37.455V266.305H38.5875C38.8275 266.305 38.985 266.418 39.06 266.642L39.21 267.355ZM49.3708 266.185C49.9408 266.185 50.4583 266.278 50.9233 266.463C51.3933 266.648 51.7933 266.91 52.1233 267.25C52.4583 267.59 52.7158 268.005 52.8958 268.495C53.0758 268.985 53.1658 269.532 53.1658 270.137C53.1658 270.748 53.0758 271.298 52.8958 271.788C52.7158 272.278 52.4583 272.695 52.1233 273.04C51.7933 273.385 51.3933 273.65 50.9233 273.835C50.4583 274.02 49.9408 274.112 49.3708 274.112C48.7958 274.112 48.2733 274.02 47.8033 273.835C47.3333 273.65 46.9308 273.385 46.5958 273.04C46.2658 272.695 46.0083 272.278 45.8233 271.788C45.6433 271.298 45.5533 270.748 45.5533 270.137C45.5533 269.532 45.6433 268.985 45.8233 268.495C46.0083 268.005 46.2658 267.59 46.5958 267.25C46.9308 266.91 47.3333 266.648 47.8033 266.463C48.2733 266.278 48.7958 266.185 49.3708 266.185ZM49.3708 272.687C50.0108 272.687 50.4833 272.473 50.7883 272.043C51.0983 271.613 51.2533 270.983 51.2533 270.153C51.2533 269.323 51.0983 268.69 50.7883 268.255C50.4833 267.82 50.0108 267.603 49.3708 267.603C48.7208 267.603 48.2383 267.823 47.9233 268.263C47.6133 268.698 47.4583 269.328 47.4583 270.153C47.4583 270.978 47.6133 271.608 47.9233 272.043C48.2383 272.473 48.7208 272.687 49.3708 272.687ZM61.2841 274H59.4316V267.677H56.4316V274H54.5791V266.305H61.2841V274ZM63.0591 268.698H66.9441V270.242H63.0591V268.698ZM73.3123 266.793C73.4023 266.648 73.5248 266.53 73.6798 266.44C73.8348 266.35 73.9998 266.305 74.1748 266.305H75.6298L73.8373 269.163C73.7123 269.363 73.5848 269.525 73.4548 269.65C73.3248 269.77 73.1673 269.865 72.9823 269.935C73.2323 270.01 73.4373 270.123 73.5973 270.273C73.7573 270.418 73.9023 270.603 74.0323 270.828L75.8323 274H74.5498C74.2248 274 73.9723 273.945 73.7923 273.835C73.6123 273.725 73.4598 273.568 73.3348 273.363L72.2023 271.233C72.1023 271.048 71.9723 270.91 71.8123 270.82C71.6573 270.73 71.4748 270.685 71.2648 270.685H70.5673V274H68.7148V266.305H70.5673V269.477H71.1673C71.3773 269.477 71.5448 269.44 71.6698 269.365C71.7998 269.285 71.9098 269.165 71.9998 269.005L73.3123 266.793ZM79.986 266.185C80.556 266.185 81.0735 266.278 81.5385 266.463C82.0085 266.648 82.4085 266.91 82.7385 267.25C83.0735 267.59 83.331 268.005 83.511 268.495C83.691 268.985 83.781 269.532 83.781 270.137C83.781 270.748 83.691 271.298 83.511 271.788C83.331 272.278 83.0735 272.695 82.7385 273.04C82.4085 273.385 82.0085 273.65 81.5385 273.835C81.0735 274.02 80.556 274.112 79.986 274.112C79.411 274.112 78.8885 274.02 78.4185 273.835C77.9485 273.65 77.546 273.385 77.211 273.04C76.881 272.695 76.6235 272.278 76.4385 271.788C76.2585 271.298 76.1685 270.748 76.1685 270.137C76.1685 269.532 76.2585 268.985 76.4385 268.495C76.6235 268.005 76.881 267.59 77.211 267.25C77.546 266.91 77.9485 266.648 78.4185 266.463C78.8885 266.278 79.411 266.185 79.986 266.185ZM79.986 272.687C80.626 272.687 81.0985 272.473 81.4035 272.043C81.7135 271.613 81.8685 270.983 81.8685 270.153C81.8685 269.323 81.7135 268.69 81.4035 268.255C81.0985 267.82 80.626 267.603 79.986 267.603C79.336 267.603 78.8535 267.823 78.5385 268.263C78.2285 268.698 78.0735 269.328 78.0735 270.153C78.0735 270.978 78.2285 271.608 78.5385 272.043C78.8535 272.473 79.336 272.687 79.986 272.687ZM94.1118 266.29V274H92.4393V269.71C92.4393 269.535 92.4468 269.337 92.4618 269.118C92.4818 268.898 92.5118 268.692 92.5518 268.503L90.2868 272.658C90.1768 272.873 90.0018 272.98 89.7618 272.98H89.5668C89.3268 272.98 89.1518 272.873 89.0418 272.658L86.7468 268.48C86.7818 268.67 86.8093 268.878 86.8293 269.102C86.8543 269.327 86.8668 269.53 86.8668 269.71V274H85.1943V266.29H86.7243C86.8543 266.29 86.9818 266.318 87.1068 266.372C87.2368 266.428 87.3443 266.538 87.4293 266.703L89.2443 269.943C89.3243 270.093 89.3993 270.252 89.4693 270.423C89.5393 270.587 89.6043 270.755 89.6643 270.925C89.7243 270.755 89.7868 270.585 89.8518 270.415C89.9218 270.245 89.9968 270.088 90.0768 269.943L91.8768 266.703C91.9668 266.532 92.0743 266.422 92.1993 266.372C92.3243 266.318 92.4518 266.29 92.5818 266.29H94.1118ZM102.651 274H100.799V267.677H97.7987V274H95.9462V266.305H102.651V274ZM108.551 270.715C108.016 270.74 107.566 270.787 107.201 270.857C106.836 270.923 106.544 271.008 106.324 271.113C106.104 271.218 105.946 271.34 105.851 271.48C105.756 271.62 105.709 271.772 105.709 271.938C105.709 272.263 105.804 272.495 105.994 272.635C106.189 272.775 106.441 272.845 106.751 272.845C107.131 272.845 107.459 272.777 107.734 272.643C108.014 272.503 108.286 272.293 108.551 272.013V270.715ZM104.306 267.378C105.191 266.568 106.256 266.162 107.501 266.162C107.951 266.162 108.354 266.237 108.709 266.387C109.064 266.532 109.364 266.738 109.609 267.003C109.854 267.263 110.039 267.575 110.164 267.94C110.294 268.305 110.359 268.705 110.359 269.14V274H109.519C109.344 274 109.209 273.975 109.114 273.925C109.019 273.87 108.944 273.762 108.889 273.603L108.724 273.048C108.529 273.223 108.339 273.377 108.154 273.512C107.969 273.643 107.776 273.753 107.576 273.842C107.376 273.933 107.161 274 106.931 274.045C106.706 274.095 106.456 274.12 106.181 274.12C105.856 274.12 105.556 274.077 105.281 273.993C105.006 273.902 104.769 273.77 104.569 273.595C104.369 273.42 104.214 273.203 104.104 272.943C103.994 272.683 103.939 272.38 103.939 272.035C103.939 271.84 103.971 271.647 104.036 271.458C104.101 271.263 104.206 271.078 104.351 270.903C104.501 270.728 104.694 270.563 104.929 270.407C105.164 270.252 105.451 270.117 105.791 270.002C106.136 269.887 106.536 269.795 106.991 269.725C107.446 269.65 107.966 269.605 108.551 269.59V269.14C108.551 268.625 108.441 268.245 108.221 268C108.001 267.75 107.684 267.625 107.269 267.625C106.969 267.625 106.719 267.66 106.519 267.73C106.324 267.8 106.151 267.88 106.001 267.97C105.851 268.055 105.714 268.132 105.589 268.202C105.469 268.272 105.334 268.307 105.184 268.307C105.054 268.307 104.944 268.275 104.854 268.21C104.764 268.14 104.691 268.06 104.636 267.97L104.306 267.378ZM118.808 266.305V274H116.956V270.595H113.956V274H112.103V266.305H113.956V269.223H116.956V266.305H118.808ZM122.564 266.305V274H120.704V266.305H122.564ZM122.819 264.063C122.819 264.222 122.786 264.372 122.721 264.512C122.656 264.652 122.569 264.775 122.459 264.88C122.354 264.985 122.229 265.07 122.084 265.135C121.939 265.195 121.784 265.225 121.619 265.225C121.459 265.225 121.306 265.195 121.161 265.135C121.021 265.07 120.899 264.985 120.794 264.88C120.689 264.775 120.604 264.652 120.539 264.512C120.479 264.372 120.449 264.222 120.449 264.063C120.449 263.898 120.479 263.743 120.539 263.598C120.604 263.453 120.689 263.328 120.794 263.223C120.899 263.118 121.021 263.035 121.161 262.975C121.306 262.91 121.459 262.878 121.619 262.878C121.784 262.878 121.939 262.91 122.084 262.975C122.229 263.035 122.354 263.118 122.459 263.223C122.569 263.328 122.656 263.453 122.721 263.598C122.786 263.743 122.819 263.898 122.819 264.063ZM131.367 266.305V274H129.515V269.508C129.515 269.393 129.52 269.267 129.53 269.132C129.545 268.992 129.562 268.852 129.582 268.713C129.482 268.943 129.372 269.145 129.252 269.32C129.242 269.33 129.192 269.4 129.102 269.53C129.012 269.655 128.895 269.818 128.75 270.018C128.61 270.218 128.45 270.445 128.27 270.7C128.09 270.95 127.907 271.205 127.722 271.465C127.287 272.08 126.795 272.775 126.245 273.55C126.175 273.655 126.082 273.758 125.967 273.857C125.857 273.957 125.73 274.007 125.585 274.007H124.452V266.312H126.305V270.805C126.305 270.92 126.297 271.047 126.282 271.187C126.272 271.322 126.257 271.46 126.237 271.6C126.347 271.355 126.457 271.153 126.567 270.993C126.572 270.982 126.62 270.915 126.71 270.79C126.8 270.665 126.915 270.503 127.055 270.303C127.2 270.102 127.362 269.877 127.542 269.628C127.722 269.373 127.905 269.113 128.09 268.848C128.525 268.232 129.02 267.538 129.575 266.763C129.645 266.653 129.737 266.55 129.852 266.455C129.967 266.355 130.097 266.305 130.242 266.305H131.367ZM128.015 264.355C128.2 264.355 128.355 264.335 128.48 264.295C128.605 264.255 128.705 264.19 128.78 264.1C128.855 264.005 128.907 263.88 128.937 263.725C128.967 263.57 128.982 263.38 128.982 263.155H130.077C130.207 263.155 130.302 263.21 130.362 263.32C130.427 263.425 130.46 263.542 130.46 263.672C130.46 263.927 130.402 264.16 130.287 264.37C130.172 264.575 130.007 264.75 129.792 264.895C129.577 265.035 129.32 265.145 129.02 265.225C128.72 265.3 128.385 265.337 128.015 265.337C127.645 265.337 127.31 265.3 127.01 265.225C126.71 265.145 126.452 265.035 126.237 264.895C126.022 264.75 125.857 264.575 125.742 264.37C125.627 264.16 125.57 263.927 125.57 263.672C125.57 263.542 125.6 263.425 125.66 263.32C125.725 263.21 125.822 263.155 125.952 263.155H127.047C127.047 263.38 127.062 263.57 127.092 263.725C127.122 263.88 127.175 264.005 127.25 264.1C127.325 264.19 127.422 264.255 127.542 264.295C127.667 264.335 127.825 264.355 128.015 264.355ZM143.55 266.305V274H141.697V270.595H138.697V274H136.845V266.305H138.697V269.223H141.697V266.305H143.55ZM149.45 270.715C148.915 270.74 148.465 270.787 148.1 270.857C147.735 270.923 147.442 271.008 147.222 271.113C147.002 271.218 146.845 271.34 146.75 271.48C146.655 271.62 146.607 271.772 146.607 271.938C146.607 272.263 146.702 272.495 146.892 272.635C147.087 272.775 147.34 272.845 147.65 272.845C148.03 272.845 148.357 272.777 148.632 272.643C148.912 272.503 149.185 272.293 149.45 272.013V270.715ZM145.205 267.378C146.09 266.568 147.155 266.162 148.4 266.162C148.85 266.162 149.252 266.237 149.607 266.387C149.962 266.532 150.262 266.738 150.507 267.003C150.752 267.263 150.937 267.575 151.062 267.94C151.192 268.305 151.257 268.705 151.257 269.14V274H150.417C150.242 274 150.107 273.975 150.012 273.925C149.917 273.87 149.842 273.762 149.787 273.603L149.622 273.048C149.427 273.223 149.237 273.377 149.052 273.512C148.867 273.643 148.675 273.753 148.475 273.842C148.275 273.933 148.06 274 147.83 274.045C147.605 274.095 147.355 274.12 147.08 274.12C146.755 274.12 146.455 274.077 146.18 273.993C145.905 273.902 145.667 273.77 145.467 273.595C145.267 273.42 145.112 273.203 145.002 272.943C144.892 272.683 144.837 272.38 144.837 272.035C144.837 271.84 144.87 271.647 144.935 271.458C145 271.263 145.105 271.078 145.25 270.903C145.4 270.728 145.592 270.563 145.827 270.407C146.062 270.252 146.35 270.117 146.69 270.002C147.035 269.887 147.435 269.795 147.89 269.725C148.345 269.65 148.865 269.605 149.45 269.59V269.14C149.45 268.625 149.34 268.245 149.12 268C148.9 267.75 148.582 267.625 148.167 267.625C147.867 267.625 147.617 267.66 147.417 267.73C147.222 267.8 147.05 267.88 146.9 267.97C146.75 268.055 146.612 268.132 146.487 268.202C146.367 268.272 146.232 268.307 146.082 268.307C145.952 268.307 145.842 268.275 145.752 268.21C145.662 268.14 145.59 268.06 145.535 267.97L145.205 267.378ZM160.264 272.763C160.904 272.763 161.382 272.558 161.697 272.148C162.012 271.737 162.169 271.138 162.169 270.348C162.169 269.562 162.014 268.965 161.704 268.555C161.399 268.145 160.932 267.94 160.302 267.94C159.672 267.94 159.192 268.135 158.862 268.525C158.532 268.91 158.367 269.487 158.367 270.258C158.367 271.073 158.522 271.695 158.832 272.125C159.147 272.55 159.624 272.763 160.264 272.763ZM160.804 264.91C160.334 264.94 159.932 265.032 159.597 265.188C159.267 265.337 158.992 265.542 158.772 265.803C158.557 266.058 158.392 266.365 158.277 266.725C158.167 267.08 158.102 267.475 158.082 267.91C158.207 267.715 158.359 267.538 158.539 267.378C158.724 267.213 158.929 267.072 159.154 266.957C159.384 266.837 159.632 266.745 159.897 266.68C160.167 266.615 160.454 266.583 160.759 266.583C161.269 266.583 161.729 266.673 162.139 266.852C162.549 267.032 162.897 267.288 163.182 267.618C163.472 267.948 163.692 268.345 163.842 268.81C163.997 269.27 164.074 269.78 164.074 270.34C164.074 270.92 163.982 271.443 163.797 271.908C163.617 272.373 163.359 272.77 163.024 273.1C162.694 273.425 162.294 273.675 161.824 273.85C161.354 274.025 160.834 274.112 160.264 274.112C159.709 274.112 159.197 274.022 158.727 273.842C158.262 273.662 157.859 273.37 157.519 272.965C157.179 272.56 156.914 272.035 156.724 271.39C156.534 270.74 156.439 269.948 156.439 269.013C156.439 268.228 156.512 267.498 156.657 266.823C156.802 266.148 157.039 265.558 157.369 265.052C157.699 264.543 158.132 264.132 158.667 263.822C159.202 263.513 159.862 263.328 160.647 263.267L163.384 263.057L163.482 264.017C163.502 264.222 163.472 264.398 163.392 264.543C163.312 264.683 163.169 264.758 162.964 264.768L160.804 264.91ZM169.577 270.715C169.042 270.74 168.592 270.787 168.227 270.857C167.862 270.923 167.569 271.008 167.349 271.113C167.129 271.218 166.972 271.34 166.877 271.48C166.782 271.62 166.734 271.772 166.734 271.938C166.734 272.263 166.829 272.495 167.019 272.635C167.214 272.775 167.467 272.845 167.777 272.845C168.157 272.845 168.484 272.777 168.759 272.643C169.039 272.503 169.312 272.293 169.577 272.013V270.715ZM165.332 267.378C166.217 266.568 167.282 266.162 168.527 266.162C168.977 266.162 169.379 266.237 169.734 266.387C170.089 266.532 170.389 266.738 170.634 267.003C170.879 267.263 171.064 267.575 171.189 267.94C171.319 268.305 171.384 268.705 171.384 269.14V274H170.544C170.369 274 170.234 273.975 170.139 273.925C170.044 273.87 169.969 273.762 169.914 273.603L169.749 273.048C169.554 273.223 169.364 273.377 169.179 273.512C168.994 273.643 168.802 273.753 168.602 273.842C168.402 273.933 168.187 274 167.957 274.045C167.732 274.095 167.482 274.12 167.207 274.12C166.882 274.12 166.582 274.077 166.307 273.993C166.032 273.902 165.794 273.77 165.594 273.595C165.394 273.42 165.239 273.203 165.129 272.943C165.019 272.683 164.964 272.38 164.964 272.035C164.964 271.84 164.997 271.647 165.062 271.458C165.127 271.263 165.232 271.078 165.377 270.903C165.527 270.728 165.719 270.563 165.954 270.407C166.189 270.252 166.477 270.117 166.817 270.002C167.162 269.887 167.562 269.795 168.017 269.725C168.472 269.65 168.992 269.605 169.577 269.59V269.14C169.577 268.625 169.467 268.245 169.247 268C169.027 267.75 168.709 267.625 168.294 267.625C167.994 267.625 167.744 267.66 167.544 267.73C167.349 267.8 167.177 267.88 167.027 267.97C166.877 268.055 166.739 268.132 166.614 268.202C166.494 268.272 166.359 268.307 166.209 268.307C166.079 268.307 165.969 268.275 165.879 268.21C165.789 268.14 165.717 268.06 165.662 267.97L165.332 267.378ZM184.356 274H183.074C182.744 274 182.494 273.95 182.324 273.85C182.154 273.75 182.019 273.588 181.919 273.363L180.779 271.233C180.684 271.048 180.556 270.91 180.396 270.82C180.241 270.73 180.059 270.685 179.849 270.685H179.241V274H177.449V270.685H176.834C176.629 270.685 176.446 270.73 176.286 270.82C176.126 270.91 175.999 271.048 175.904 271.233L174.764 273.363C174.664 273.588 174.529 273.75 174.359 273.85C174.189 273.95 173.939 274 173.609 274H172.334L174.134 270.828C174.259 270.603 174.401 270.418 174.561 270.273C174.721 270.123 174.926 270.008 175.176 269.927C174.991 269.862 174.834 269.77 174.704 269.65C174.574 269.525 174.449 269.363 174.329 269.163L172.529 266.305H173.991C174.161 266.305 174.316 266.35 174.456 266.44C174.601 266.525 174.714 266.643 174.794 266.793L176.099 269.005C176.194 269.165 176.304 269.285 176.429 269.365C176.559 269.44 176.729 269.477 176.939 269.477H177.449V266.305H179.241V269.477H179.714C179.924 269.477 180.096 269.44 180.231 269.365C180.371 269.285 180.489 269.165 180.584 269.005L181.889 266.793C181.969 266.643 182.079 266.525 182.219 266.44C182.364 266.35 182.524 266.305 182.699 266.305H184.154L182.354 269.163C182.234 269.363 182.109 269.525 181.979 269.65C181.849 269.77 181.691 269.862 181.506 269.927C181.756 270.008 181.961 270.123 182.121 270.273C182.281 270.418 182.424 270.603 182.549 270.828L184.356 274ZM189.455 270.715C188.92 270.74 188.47 270.787 188.105 270.857C187.74 270.923 187.447 271.008 187.227 271.113C187.007 271.218 186.85 271.34 186.755 271.48C186.66 271.62 186.612 271.772 186.612 271.938C186.612 272.263 186.707 272.495 186.897 272.635C187.092 272.775 187.345 272.845 187.655 272.845C188.035 272.845 188.362 272.777 188.637 272.643C188.917 272.503 189.19 272.293 189.455 272.013V270.715ZM185.21 267.378C186.095 266.568 187.16 266.162 188.405 266.162C188.855 266.162 189.257 266.237 189.612 266.387C189.967 266.532 190.267 266.738 190.512 267.003C190.757 267.263 190.942 267.575 191.067 267.94C191.197 268.305 191.262 268.705 191.262 269.14V274H190.422C190.247 274 190.112 273.975 190.017 273.925C189.922 273.87 189.847 273.762 189.792 273.603L189.627 273.048C189.432 273.223 189.242 273.377 189.057 273.512C188.872 273.643 188.68 273.753 188.48 273.842C188.28 273.933 188.065 274 187.835 274.045C187.61 274.095 187.36 274.12 187.085 274.12C186.76 274.12 186.46 274.077 186.185 273.993C185.91 273.902 185.672 273.77 185.472 273.595C185.272 273.42 185.117 273.203 185.007 272.943C184.897 272.683 184.842 272.38 184.842 272.035C184.842 271.84 184.875 271.647 184.94 271.458C185.005 271.263 185.11 271.078 185.255 270.903C185.405 270.728 185.597 270.563 185.832 270.407C186.067 270.252 186.355 270.117 186.695 270.002C187.04 269.887 187.44 269.795 187.895 269.725C188.35 269.65 188.87 269.605 189.455 269.59V269.14C189.455 268.625 189.345 268.245 189.125 268C188.905 267.75 188.587 267.625 188.172 267.625C187.872 267.625 187.622 267.66 187.422 267.73C187.227 267.8 187.055 267.88 186.905 267.97C186.755 268.055 186.617 268.132 186.492 268.202C186.372 268.272 186.237 268.307 186.087 268.307C185.957 268.307 185.847 268.275 185.757 268.21C185.667 268.14 185.595 268.06 185.54 267.97L185.21 267.378ZM199.712 266.305V274H197.859V270.595H194.859V274H193.007V266.305H194.859V269.223H197.859V266.305H199.712ZM208.537 266.305L204.344 276.115C204.289 276.245 204.217 276.343 204.127 276.407C204.042 276.477 203.909 276.512 203.729 276.512H202.349L203.789 273.422L200.677 266.305H202.304C202.449 266.305 202.562 266.34 202.642 266.41C202.727 266.48 202.789 266.56 202.829 266.65L204.464 270.64C204.519 270.775 204.564 270.91 204.599 271.045C204.639 271.18 204.677 271.318 204.712 271.458C204.757 271.318 204.802 271.18 204.847 271.045C204.892 270.905 204.942 270.768 204.997 270.632L206.542 266.65C206.582 266.55 206.647 266.468 206.737 266.403C206.832 266.338 206.937 266.305 207.052 266.305H208.537ZM218.617 267.933C218.562 268.003 218.507 268.058 218.452 268.097C218.402 268.138 218.327 268.158 218.227 268.158C218.132 268.158 218.039 268.13 217.949 268.075C217.859 268.015 217.752 267.95 217.627 267.88C217.502 267.805 217.352 267.74 217.177 267.685C217.007 267.625 216.794 267.595 216.539 267.595C216.214 267.595 215.929 267.655 215.684 267.775C215.439 267.89 215.234 268.058 215.069 268.278C214.909 268.498 214.789 268.765 214.709 269.08C214.629 269.39 214.589 269.742 214.589 270.137C214.589 270.547 214.632 270.913 214.717 271.233C214.807 271.553 214.934 271.823 215.099 272.043C215.264 272.258 215.464 272.423 215.699 272.538C215.934 272.648 216.199 272.703 216.494 272.703C216.789 272.703 217.027 272.668 217.207 272.598C217.392 272.523 217.547 272.443 217.672 272.358C217.797 272.267 217.904 272.187 217.994 272.117C218.089 272.043 218.194 272.005 218.309 272.005C218.459 272.005 218.572 272.063 218.647 272.177L219.179 272.852C218.974 273.093 218.752 273.295 218.512 273.46C218.272 273.62 218.022 273.75 217.762 273.85C217.507 273.945 217.242 274.012 216.967 274.052C216.697 274.092 216.427 274.112 216.157 274.112C215.682 274.112 215.234 274.025 214.814 273.85C214.394 273.67 214.027 273.41 213.712 273.07C213.397 272.73 213.147 272.315 212.962 271.825C212.782 271.33 212.692 270.767 212.692 270.137C212.692 269.573 212.772 269.05 212.932 268.57C213.097 268.085 213.337 267.668 213.652 267.318C213.967 266.963 214.357 266.685 214.822 266.485C215.287 266.285 215.822 266.185 216.427 266.185C217.002 266.185 217.504 266.278 217.934 266.463C218.369 266.648 218.759 266.913 219.104 267.258L218.617 267.933ZM227.331 266.305L223.138 276.115C223.083 276.245 223.011 276.343 222.921 276.407C222.836 276.477 222.703 276.512 222.523 276.512H221.143L222.583 273.422L219.471 266.305H221.098C221.243 266.305 221.356 266.34 221.436 266.41C221.521 266.48 221.583 266.56 221.623 266.65L223.258 270.64C223.313 270.775 223.358 270.91 223.393 271.045C223.433 271.18 223.471 271.318 223.506 271.458C223.551 271.318 223.596 271.18 223.641 271.045C223.686 270.905 223.736 270.768 223.791 270.632L225.336 266.65C225.376 266.55 225.441 266.468 225.531 266.403C225.626 266.338 225.731 266.305 225.846 266.305H227.331ZM237.168 266.29V274H235.496V269.71C235.496 269.535 235.503 269.337 235.518 269.118C235.538 268.898 235.568 268.692 235.608 268.503L233.343 272.658C233.233 272.873 233.058 272.98 232.818 272.98H232.623C232.383 272.98 232.208 272.873 232.098 272.658L229.803 268.48C229.838 268.67 229.866 268.878 229.886 269.102C229.911 269.327 229.923 269.53 229.923 269.71V274H228.251V266.29H229.781C229.911 266.29 230.038 266.318 230.163 266.372C230.293 266.428 230.401 266.538 230.486 266.703L232.301 269.943C232.381 270.093 232.456 270.252 232.526 270.423C232.596 270.587 232.661 270.755 232.721 270.925C232.781 270.755 232.843 270.585 232.908 270.415C232.978 270.245 233.053 270.088 233.133 269.943L234.933 266.703C235.023 266.532 235.131 266.422 235.256 266.372C235.381 266.318 235.508 266.29 235.638 266.29H237.168ZM245.993 266.305L241.8 276.115C241.745 276.245 241.673 276.343 241.583 276.407C241.498 276.477 241.365 276.512 241.185 276.512H239.805L241.245 273.422L238.133 266.305H239.76C239.905 266.305 240.018 266.34 240.098 266.41C240.183 266.48 240.245 266.56 240.285 266.65L241.92 270.64C241.975 270.775 242.02 270.91 242.055 271.045C242.095 271.18 242.133 271.318 242.168 271.458C242.213 271.318 242.258 271.18 242.303 271.045C242.348 270.905 242.398 270.768 242.453 270.632L243.998 266.65C244.038 266.55 244.103 266.468 244.193 266.403C244.288 266.338 244.393 266.305 244.508 266.305H245.993Z" fill="black"/>
<path d="M36.325 56.5775C36.325 57.5225 36.2225 58.345 36.0175 59.045C35.8175 59.74 35.5375 60.315 35.1775 60.77C34.8225 61.225 34.4 61.565 33.91 61.79C33.425 62.01 32.9 62.12 32.335 62.12C31.77 62.12 31.245 62.01 30.76 61.79C30.28 61.565 29.8625 61.225 29.5075 60.77C29.1525 60.315 28.875 59.74 28.675 59.045C28.475 58.345 28.375 57.5225 28.375 56.5775C28.375 55.6275 28.475 54.805 28.675 54.11C28.875 53.415 29.1525 52.84 29.5075 52.385C29.8625 51.93 30.28 51.5925 30.76 51.3725C31.245 51.1475 31.77 51.035 32.335 51.035C32.9 51.035 33.425 51.1475 33.91 51.3725C34.4 51.5925 34.8225 51.93 35.1775 52.385C35.5375 52.84 35.8175 53.415 36.0175 54.11C36.2225 54.805 36.325 55.6275 36.325 56.5775ZM34.4125 56.5775C34.4125 55.7925 34.355 55.1425 34.24 54.6275C34.125 54.1125 33.97 53.7025 33.775 53.3975C33.585 53.0925 33.365 52.88 33.115 52.76C32.865 52.635 32.605 52.5725 32.335 52.5725C32.07 52.5725 31.8125 52.635 31.5625 52.76C31.3175 52.88 31.1 53.0925 30.91 53.3975C30.72 53.7025 30.5675 54.1125 30.4525 54.6275C30.3425 55.1425 30.2875 55.7925 30.2875 56.5775C30.2875 57.3625 30.3425 58.0125 30.4525 58.5275C30.5675 59.0425 30.72 59.4525 30.91 59.7575C31.1 60.0625 31.3175 60.2775 31.5625 60.4025C31.8125 60.5225 32.07 60.5825 32.335 60.5825C32.605 60.5825 32.865 60.5225 33.115 60.4025C33.365 60.2775 33.585 60.0625 33.775 59.7575C33.97 59.4525 34.125 59.0425 34.24 58.5275C34.355 58.0125 34.4125 57.3625 34.4125 56.5775ZM44.4637 60.6125V62H38.4637V60.6125H40.6612V54.29C40.6612 54.04 40.6687 53.7825 40.6837 53.5175L39.1237 54.8225C39.0337 54.8925 38.9437 54.9375 38.8537 54.9575C38.7687 54.9725 38.6862 54.9725 38.6062 54.9575C38.5312 54.9425 38.4637 54.9175 38.4037 54.8825C38.3437 54.8425 38.2987 54.8 38.2687 54.755L37.6837 53.9525L40.9912 51.14H42.5137V60.6125H44.4637Z" fill="#A7A7A7"/>
<g filter="url(#filter1_d_1198_8819)">
<rect x="86" y="59.1826" width="203.386" height="158.793" rx="10.6672" fill="white" shape-rendering="crispEdges"/>
<g clip-path="url(#clip1_1198_8819)">
<path d="M178.618 95.4148C178.618 85.6918 170.354 77.8506 160.106 77.8506H153.936H141.485H129.034H116.693V89.5601V101.27V112.979V124.689V136.398V148.108H129.034V136.503V124.793V113.084V101.374V89.5601H141.375H153.716H166.056V101.27H159.886H153.716H141.485V112.979H153.826H159.996H166.167V124.689H153.826H141.485V136.398H153.826H159.996C170.244 136.398 178.508 128.557 178.508 118.834C178.508 114.338 176.744 110.261 173.77 107.124C176.744 104.092 178.618 100.015 178.618 95.4148Z" fill="#3374FF"/>
<path fill-rule="evenodd" clip-rule="evenodd" d="M208.011 102.325C208.81 103.606 209.809 104.567 211.207 105.271C212.606 105.912 214.204 106.296 216.136 106.296C218 106.296 219.599 105.976 220.997 105.271C222.396 104.567 223.462 103.606 224.194 102.325C224.927 101.044 225.326 99.5709 225.326 97.8415C225.326 96.1121 224.927 94.6389 224.194 93.3579C223.462 92.0769 222.329 91.1161 220.997 90.4116C219.665 89.707 218 89.3867 216.136 89.3867C214.204 89.3867 212.606 89.707 211.207 90.4116C209.809 91.1161 208.743 92.0769 208.011 93.3579C207.278 94.6389 206.878 96.1121 206.878 97.8415C206.878 99.5709 207.278 101.044 208.011 102.325ZM219.865 100.34C219.532 101.044 219.066 101.621 218.4 102.005C217.801 102.389 217.001 102.581 216.069 102.581C215.203 102.581 214.471 102.389 213.805 102.005C213.205 101.621 212.672 101.044 212.339 100.34C212.006 99.5709 211.807 98.7382 211.807 97.7774C211.807 96.7526 212.006 95.92 212.339 95.2154C212.672 94.5109 213.139 93.9984 213.805 93.6141C214.404 93.2299 215.203 93.0376 216.069 93.0376C216.935 93.0376 217.667 93.2299 218.333 93.6141C218.999 93.9984 219.532 94.5749 219.865 95.2795C220.198 95.984 220.398 96.8167 220.398 97.7774C220.398 98.8023 220.198 99.6349 219.865 100.34ZM192.759 89.7069H190.362V105.976H195.09V105.912H199.886C201.151 105.912 202.216 105.72 203.149 105.335C204.081 104.951 204.814 104.439 205.28 103.734C205.746 103.094 206.013 102.261 206.013 101.3C206.013 100.596 205.813 99.9551 205.48 99.3787C205.08 98.8662 204.614 98.3538 203.948 98.0336C203.282 97.7133 202.549 97.5212 201.75 97.4571V97.393C202.416 97.2649 203.016 97.0728 203.548 96.7525C204.015 96.4323 204.481 96.0479 204.747 95.5355C205.08 95.0232 205.213 94.4467 205.213 93.8061C205.213 92.9735 205.014 92.2689 204.547 91.6284C204.081 90.9879 203.415 90.5395 202.616 90.2192C201.75 89.899 200.751 89.7069 199.619 89.7069H195.09H192.759ZM195.09 92.8454V96.3042H198.087C198.887 96.3042 199.486 96.176 199.886 95.8558C200.285 95.5355 200.485 95.0872 200.485 94.5108C200.485 93.9983 200.285 93.55 199.886 93.2938C199.553 92.9735 199.02 92.8454 198.354 92.8454H195.09ZM195.09 99.1224H198.42C199.02 99.1224 199.486 99.1864 199.886 99.3146C200.219 99.4427 200.552 99.6989 200.751 99.9551C200.951 100.275 201.084 100.596 201.084 100.98C201.084 101.62 200.885 102.069 200.418 102.389C200.019 102.709 199.353 102.837 198.554 102.837H195.09V99.1224ZM227.125 89.7069H231.92V102.389H239.645V105.976H227.125V89.7069ZM249.235 89.7069H241.377V105.912H249.235C251.1 105.912 252.699 105.592 253.964 104.951C255.296 104.311 256.295 103.35 256.961 102.133C257.627 100.852 257.96 99.3787 257.96 97.6493C257.96 95.9199 257.627 94.5108 256.961 93.2938C256.228 92.1409 255.296 91.2441 253.964 90.6036C252.633 90.0271 251.1 89.7069 249.235 89.7069ZM251.034 101.877C250.434 102.197 249.568 102.389 248.636 102.389V102.453H246.106V93.2938H248.636C249.568 93.2938 250.368 93.4859 251.034 93.8061C251.633 94.1905 252.166 94.7029 252.499 95.3434C252.832 95.9839 253.032 96.8165 253.032 97.7773C253.032 98.8022 252.832 99.6348 252.499 100.339C252.166 101.044 251.699 101.556 251.034 101.877ZM190.429 109.499H203.415V113.086H195.224V116.48H202.749V119.875H195.224V125.768H190.429V109.499ZM206.146 123.078C206.812 124.038 207.744 124.807 208.943 125.32C210.142 125.832 211.541 126.088 213.272 126.152C214.937 126.152 216.336 125.832 217.535 125.32C218.733 124.743 219.666 123.974 220.332 123.014C220.998 122.053 221.331 120.836 221.331 119.491V109.499H216.602V119.171C216.602 119.811 216.469 120.452 216.203 120.9C215.936 121.348 215.536 121.733 215.07 121.989C214.538 122.245 214.005 122.373 213.272 122.373C212.54 122.373 211.94 122.245 211.474 121.989C210.941 121.733 210.608 121.348 210.342 120.9C210.075 120.452 209.942 119.875 209.942 119.171V109.499H205.147V119.555C205.147 120.9 205.48 122.117 206.146 123.078ZM223.528 109.499H227.59L235.11 118.722H235.116V109.499H239.845V125.768H235.849L228.265 116.48H228.19V125.768H223.462V109.499H223.528ZM249.968 109.499H242.11V125.704H249.968C251.833 125.704 253.431 125.384 254.696 124.743C256.029 124.103 257.027 123.142 257.693 121.925C258.36 120.644 258.693 119.171 258.693 117.441C258.693 115.712 258.36 114.303 257.693 113.086C256.961 111.933 256.029 111.036 254.696 110.396C253.365 109.819 251.833 109.499 249.968 109.499ZM251.833 121.733C251.234 122.053 250.368 122.245 249.435 122.245H246.905V113.086H249.435C250.368 113.086 251.234 113.278 251.833 113.662C252.432 114.047 252.965 114.559 253.298 115.199C253.631 115.84 253.83 116.673 253.83 117.633C253.83 118.658 253.631 119.491 253.298 120.195C252.965 120.9 252.499 121.412 251.833 121.733Z" fill="black"/>
</g>
<rect x="107.334" y="170.085" width="160.717" height="29.223" rx="14.6115" fill="url(#paint0_linear_1198_8819)"/>
<path d="M166.469 189.196H164.783V181.487H160.875V189.196H159.195V180.198H166.469V189.196ZM169.665 187.541C169.839 187.753 170.028 187.902 170.231 187.989C170.439 188.076 170.663 188.12 170.903 188.12C171.135 188.12 171.345 188.076 171.532 187.989C171.718 187.902 171.876 187.769 172.005 187.591C172.137 187.412 172.239 187.188 172.309 186.919C172.38 186.645 172.415 186.324 172.415 185.954C172.415 185.581 172.384 185.266 172.322 185.009C172.264 184.747 172.179 184.536 172.067 184.374C171.955 184.212 171.818 184.094 171.656 184.019C171.498 183.944 171.318 183.907 171.115 183.907C170.795 183.907 170.524 183.976 170.3 184.112C170.076 184.245 169.864 184.434 169.665 184.679V187.541ZM169.584 183.683C169.845 183.389 170.142 183.15 170.474 182.968C170.806 182.785 171.196 182.694 171.644 182.694C171.992 182.694 172.309 182.766 172.596 182.912C172.886 183.057 173.135 183.268 173.342 183.546C173.554 183.82 173.716 184.16 173.828 184.567C173.944 184.969 174.002 185.432 174.002 185.954C174.002 186.431 173.938 186.873 173.809 187.28C173.68 187.686 173.496 188.039 173.255 188.338C173.019 188.636 172.73 188.871 172.39 189.041C172.054 189.207 171.677 189.29 171.258 189.29C170.901 189.29 170.596 189.236 170.343 189.128C170.09 189.016 169.864 188.862 169.665 188.667V191.281H168.128V182.812H169.067C169.267 182.812 169.397 182.905 169.459 183.092L169.584 183.683ZM180.926 182.812V189.196H179.389V185.469C179.389 185.374 179.393 185.27 179.402 185.158C179.414 185.042 179.429 184.926 179.445 184.809C179.362 185 179.271 185.168 179.171 185.313C179.163 185.322 179.122 185.38 179.047 185.488C178.972 185.591 178.875 185.726 178.755 185.892C178.638 186.058 178.506 186.247 178.356 186.458C178.207 186.666 178.056 186.877 177.902 187.093C177.541 187.603 177.133 188.18 176.676 188.823C176.618 188.91 176.541 188.995 176.446 189.078C176.355 189.161 176.249 189.203 176.129 189.203H175.189V182.818H176.726V186.545C176.726 186.641 176.72 186.747 176.707 186.863C176.699 186.975 176.687 187.089 176.67 187.205C176.761 187.002 176.852 186.834 176.944 186.701C176.948 186.693 176.987 186.637 177.062 186.533C177.137 186.429 177.232 186.295 177.348 186.129C177.469 185.963 177.603 185.776 177.753 185.569C177.902 185.357 178.053 185.141 178.207 184.921C178.568 184.411 178.979 183.835 179.439 183.192C179.497 183.1 179.574 183.015 179.669 182.936C179.765 182.853 179.873 182.812 179.993 182.812H180.926ZM186.701 188.101V183.988H185.133C185.091 184.523 185.039 185.006 184.977 185.438C184.915 185.865 184.842 186.247 184.759 186.583C184.676 186.919 184.585 187.211 184.486 187.46C184.39 187.709 184.286 187.923 184.174 188.101H186.701ZM189.364 188.058V190.876C189.364 191.017 189.323 191.129 189.24 191.212C189.161 191.295 189.057 191.337 188.929 191.337H187.97V189.196H183.191V190.901C183.191 191.009 183.156 191.109 183.086 191.2C183.019 191.291 182.913 191.337 182.768 191.337H181.797V188.101H181.978C182.123 188.101 182.264 188.082 182.401 188.045C182.538 188.004 182.669 187.921 182.793 187.796C182.922 187.672 183.042 187.493 183.154 187.261C183.27 187.025 183.374 186.711 183.465 186.321C183.556 185.927 183.635 185.444 183.702 184.872C183.772 184.299 183.828 183.613 183.87 182.812H188.194V188.058H189.364ZM193.161 188.17C193.692 188.17 194.088 187.999 194.35 187.659C194.611 187.319 194.742 186.821 194.742 186.166C194.742 185.515 194.613 185.019 194.356 184.679C194.103 184.339 193.715 184.168 193.192 184.168C192.67 184.168 192.271 184.33 191.998 184.654C191.724 184.973 191.587 185.452 191.587 186.091C191.587 186.767 191.716 187.284 191.973 187.641C192.234 187.993 192.63 188.17 193.161 188.17ZM193.609 181.655C193.219 181.679 192.885 181.756 192.607 181.885C192.334 182.009 192.106 182.179 191.923 182.395C191.745 182.607 191.608 182.862 191.512 183.16C191.421 183.455 191.367 183.783 191.351 184.144C191.454 183.982 191.581 183.835 191.73 183.702C191.884 183.565 192.054 183.449 192.24 183.353C192.431 183.254 192.637 183.177 192.856 183.123C193.08 183.069 193.319 183.042 193.572 183.042C193.995 183.042 194.377 183.117 194.717 183.266C195.057 183.416 195.345 183.627 195.582 183.901C195.822 184.175 196.005 184.504 196.129 184.89C196.258 185.272 196.322 185.695 196.322 186.16C196.322 186.641 196.246 187.074 196.092 187.46C195.943 187.846 195.729 188.176 195.451 188.45C195.177 188.719 194.846 188.927 194.456 189.072C194.066 189.217 193.634 189.29 193.161 189.29C192.701 189.29 192.276 189.215 191.886 189.066C191.5 188.916 191.166 188.674 190.884 188.338C190.602 188.002 190.382 187.566 190.224 187.031C190.067 186.492 189.988 185.834 189.988 185.058C189.988 184.407 190.048 183.801 190.168 183.241C190.289 182.681 190.486 182.192 190.759 181.773C191.033 181.35 191.392 181.009 191.836 180.752C192.28 180.495 192.827 180.342 193.479 180.292L195.75 180.118L195.831 180.914C195.847 181.084 195.822 181.229 195.756 181.35C195.69 181.466 195.572 181.528 195.401 181.536L193.609 181.655ZM200.887 186.471C200.444 186.492 200.07 186.531 199.767 186.589C199.465 186.643 199.222 186.713 199.039 186.801C198.857 186.888 198.726 186.989 198.647 187.106C198.569 187.222 198.529 187.348 198.529 187.485C198.529 187.755 198.608 187.948 198.766 188.064C198.927 188.18 199.137 188.238 199.394 188.238C199.709 188.238 199.981 188.182 200.209 188.07C200.442 187.954 200.668 187.78 200.887 187.547V186.471ZM197.366 183.702C198.1 183.03 198.983 182.694 200.016 182.694C200.39 182.694 200.724 182.756 201.018 182.88C201.313 183.001 201.562 183.171 201.765 183.391C201.968 183.606 202.122 183.866 202.225 184.168C202.333 184.471 202.387 184.803 202.387 185.164V189.196H201.69C201.545 189.196 201.433 189.176 201.354 189.134C201.275 189.088 201.213 188.999 201.167 188.866L201.031 188.406C200.869 188.551 200.711 188.68 200.558 188.792C200.404 188.9 200.244 188.991 200.079 189.066C199.913 189.14 199.734 189.196 199.543 189.234C199.357 189.275 199.149 189.296 198.921 189.296C198.652 189.296 198.403 189.261 198.174 189.19C197.946 189.115 197.749 189.005 197.583 188.86C197.417 188.715 197.289 188.535 197.198 188.319C197.106 188.103 197.061 187.852 197.061 187.566C197.061 187.404 197.088 187.244 197.141 187.087C197.195 186.925 197.283 186.772 197.403 186.626C197.527 186.481 197.687 186.344 197.882 186.216C198.077 186.087 198.315 185.975 198.598 185.88C198.884 185.784 199.216 185.708 199.593 185.649C199.971 185.587 200.402 185.55 200.887 185.537V185.164C200.887 184.737 200.796 184.422 200.614 184.218C200.431 184.011 200.168 183.907 199.823 183.907C199.575 183.907 199.367 183.936 199.201 183.994C199.039 184.052 198.896 184.119 198.772 184.193C198.647 184.264 198.533 184.328 198.43 184.386C198.33 184.444 198.218 184.473 198.094 184.473C197.986 184.473 197.894 184.446 197.82 184.392C197.745 184.334 197.685 184.268 197.639 184.193L197.366 183.702ZM209.201 183.951H206.924V189.196H205.387V183.951H203.115V182.812H209.201V183.951ZM215.843 182.812V189.196H214.306V185.469C214.306 185.374 214.31 185.27 214.318 185.158C214.331 185.042 214.345 184.926 214.362 184.809C214.279 185 214.188 185.168 214.088 185.313C214.08 185.322 214.038 185.38 213.964 185.488C213.889 185.591 213.792 185.726 213.671 185.892C213.555 186.058 213.422 186.247 213.273 186.458C213.124 186.666 212.972 186.877 212.819 187.093C212.458 187.603 212.049 188.18 211.593 188.823C211.535 188.91 211.458 188.995 211.363 189.078C211.271 189.161 211.166 189.203 211.045 189.203H210.106V182.818H211.643V186.545C211.643 186.641 211.637 186.747 211.624 186.863C211.616 186.975 211.603 187.089 211.587 187.205C211.678 187.002 211.769 186.834 211.861 186.701C211.865 186.693 211.904 186.637 211.979 186.533C212.053 186.429 212.149 186.295 212.265 186.129C212.385 185.963 212.52 185.776 212.669 185.569C212.819 185.357 212.97 185.141 213.124 184.921C213.485 184.411 213.895 183.835 214.356 183.192C214.414 183.1 214.491 183.015 214.586 182.936C214.681 182.853 214.789 182.812 214.91 182.812H215.843Z" fill="white"/>
</g>
</g>
</g>
<defs>
<filter id="filter0_d_1198_8819" x="-21.75" y="0.25" width="418.5" height="329.5" filterUnits="userSpaceOnUse" color-interpolation-filters="sRGB">
<feFlood flood-opacity="0" result="BackgroundImageFix"/>
<feColorMatrix in="SourceAlpha" type="matrix" values="0 0 0 0 0 0 0 0 0 0 0 0 0 0 0 0 0 0 127 0" result="hardAlpha"/>
<feOffset dy="3"/>
<feGaussianBlur stdDeviation="16.875"/>
<feComposite in2="hardAlpha" operator="out"/>
<feColorMatrix type="matrix" values="0 0 0 0 0.811667 0 0 0 0 0.811667 0 0 0 0 0.811667 0 0 0 0.25 0"/>
<feBlend mode="normal" in2="BackgroundImageFix" result="effect1_dropShadow_1198_8819"/>
<feBlend mode="normal" in="SourceGraphic" in2="effect1_dropShadow_1198_8819" result="shape"/>
</filter>
<filter id="filter1_d_1198_8819" x="45.9979" y="22.7362" width="283.39" height="238.797" filterUnits="userSpaceOnUse" color-interpolation-filters="sRGB">
<feFlood flood-opacity="0" result="BackgroundImageFix"/>
<feColorMatrix in="SourceAlpha" type="matrix" values="0 0 0 0 0 0 0 0 0 0 0 0 0 0 0 0 0 0 127 0" result="hardAlpha"/>
<feOffset dy="3.55575"/>
<feGaussianBlur stdDeviation="20.0011"/>
<feComposite in2="hardAlpha" operator="out"/>
<feColorMatrix type="matrix" values="0 0 0 0 0.811667 0 0 0 0 0.811667 0 0 0 0 0.811667 0 0 0 0.25 0"/>
<feBlend mode="normal" in2="BackgroundImageFix" result="effect1_dropShadow_1198_8819"/>
<feBlend mode="normal" in="SourceGraphic" in2="effect1_dropShadow_1198_8819" result="shape"/>
</filter>
<linearGradient id="paint0_linear_1198_8819" x1="264.296" y1="205.226" x2="146.06" y2="130.205" gradientUnits="userSpaceOnUse">
<stop stop-color="#369FAE"/>
<stop offset="0.9886" stop-color="#6BE4CA"/>
<stop offset="0.9924" stop-color="#6BE4CA"/>
</linearGradient>
<clipPath id="clip0_1198_8819">
<rect x="12" y="31" width="351" height="262" rx="9" fill="white"/>
</clipPath>
<clipPath id="clip1_1198_8819">
<rect width="142" height="71" fill="white" transform="translate(116.693 77.8506)"/>
</clipPath>
</defs>
</svg>
